<?xml version="1.0" encoding="utf-8"?>
<!-- Generator: Adobe Illustrator 19.2.1, SVG Export Plug-In . SVG Version: 6.00 Build 0)  -->
<svg version="1.1" id="Слой_0_xA0_Image_1_" xmlns="http://www.w3.org/2000/svg" xmlns:xlink="http://www.w3.org/1999/xlink"
	 x="0px" y="0px" viewBox="0 0 746 746" style="enable-background:new 0 0 746 746;" xml:space="preserve">
<style type="text/css">
	.logo_svg{transform: translateY(99px);}
	.st0{fill:none;stroke:#000000;stroke-miterlimit:10;}
	.st1{display:none;}
	.st2{display:inline;}
</style>
<g class="logo_svg">
	<path class="st0" d="M185.7,410.6c0.4-7.5,0.7-15,1-22.5C183.1,395.4,184.7,403,185.7,410.6z"/>
	<path class="st0" d="M659.7,359.4c0.1-1.1-1.4-2.4-2.1-3.5c-1.1,0.8-2.1,1.7-3.7,3.2c1.4,1.5,2.2,2.4,3,3.3
		C657.9,361.4,659.6,360.5,659.7,359.4z"/>
	<path class="st0" d="M198,189.3c-3.4,2.6-5.5,6.8-8.4,10.1c-2.7,3.1-2.2,6.2,0.5,8.2c5.8,4.2,9.4,9,7.3,16.6
		c-0.1,0.4,0.2,1,0.2,1.5c1.2,12.4,2.4,24.8,3.6,37.3c0.4,0,0.8,0,1.2,0c-0.4-6.5-0.9-13-1.3-19.5c-0.6-9.5-1.3-19-1.7-28.5
		c-0.1-1.4,1.4-3.1,2.6-4.1c2.8-2.5,6.3-4.4,8.7-7.2c3.6-4.1,3.5-11.6,0.6-14.8C208.7,186,202.7,185.7,198,189.3z"/>
	<path class="st0" d="M225,215.9c-2.7-0.6-7.3,4.2-6.9,7.2c0.3,1.2,1.9,2.3,2.3,2.8c4.8,0,7.9-3.3,7.5-6.9
		C227.8,217.8,226.2,216.1,225,215.9z"/>
	<path class="st0" d="M441.9,409.3c-2,1.1-3.5,3.1-4.9,5c-0.2,0.2,2.8,3.4,3.2,3.1c1.8-0.9,3.2-2.7,4.8-4.1c0.4-0.8,0.8-1.6,1.2-2.4
		C444.7,410.3,442.8,408.9,441.9,409.3z"/>
	<path class="st0" d="M120.6,405.5c-1,1.1-2.5,2-3,3.3c-0.2,0.8,1.1,2.1,2.2,4.3c1.5-2.1,2.9-3.3,3-4.5
		C122.9,407.6,121.4,406.5,120.6,405.5z"/>
	<path class="st0" d="M613.6,434.3c-2.7-1.8-6-1.6-8,1c-1,1.3-1.5,4.9-0.7,5.6c3.2,2.7,3,6,3.2,9.4c0.2,3.7,0.6,7.3,0.9,10.8
		c0.3,0,0.6,0,0.8,0c0.3-3.9,1.3-7.9,0.8-11.7c-0.6-4.8,3.7-6.8,4.6-10.5C615.5,437.5,614.7,435,613.6,434.3z"/>
	<path class="st0" d="M78.6,398.6c-1-0.9-2.7-3.6-4.9-4.1c-4-1-8.5,3.2-8.6,7c-0.1,3.3,3.4,7.7,6.4,7.8
		C75.2,409.4,78.5,405.4,78.6,398.6z"/>
	<path class="st0" d="M459,387c-4.5,2.6-8.9,5.3-14.5,8.7c11.7,1,19.9-4.4,29-8.9c4.9,26,9.7,51,14.7,77.2
		c2.1-6.5-3.4-12.6,2.6-17.4c-0.5-8.7-1-17.6-1.5-26.6c0.4-0.1,0.9-0.1,1.3-0.2c0.7,1.4,1.4,2.7,2.1,4.2c0.4-1.5,0.7-2.9,1.1-4.3
		c0.4,0,0.8,0,1.2,0c1,3.9,2,7.7,3,11.6c0.8-2.1,0.6-4,0.3-5.9c-2-14.5-4.1-29-6.1-43.5c-0.7-5-0.9-9.9,4.5-13.1
		c2.2-1.3,4.1-3.3,5.8-5.2c11.9-14,23.7-28,35.5-42.1c0.7-0.8,0.8-2.1,1.1-3.2c0.7-2.1,1.1-4.3,2.1-6.3c1-2.1,2.5-4.1,3.8-6.1
		c-15.6,20.2-31.9,39.5-52.4,55c-3.8-7.4,1.5-15.7-3.7-22.8c-6.3,6.3-12.2,12-17.7,17.9c-1.1,1.2-1.4,3.8-1,5.5
		C473.8,377.3,473.2,378.9,459,387z"/>
	<path class="st0" d="M715.9,236.3c-14.7,0.2-29.5,1.6-44.1,3.2c-4.9,0.5-6.6-1.1-7.4-5.3c-1.7-9.3-3.8-18.5-5.3-27.8
		c-2.7-16.5-5.5-33-7.5-49.6c-1.9-15.6-2.6-31.4-4-47.1c-1.9-22-2.4-44,1.3-65.9c1-5.9,1.9-11.8,2.5-17.7c0.1-1.6-1.3-3.3-2-5
		c-1.4,1-3,1.8-4,3c-1.8,2.2-3,4.8-4.7,7c-13.9,17.7-29.1,34.1-47.9,46.8c-1,0.7-1.6,1.8-2.4,2.7c0.2,0.6,0.3,1.1,0.5,1.7
		c5.6-0.4,11.2-0.8,17-1.3c0.1,0.3,0.4,0.9,0.5,1.5c1.4,13.2,2.8,26.4,4,39.6c1.4,14.8,2,29.7,4.1,44.4c1.6,11.1,5.2,21.9,7.4,32.9
		c3,14.6,5.5,29.3,8.1,44.1c0.2,1.1-0.4,3.3-1.2,3.6c-8.9,3.2-17.9,6.2-26.9,8.9c-0.9,0.3-3.3-1.3-3.4-2.3
		c-0.8-4.2-0.8-8.5-1.5-12.8c-3.5-21.3-7.2-42.6-10.5-63.9c-3.5-22.6-6.7-45.3-10-68c-1.4-9.4-3.4-18.7-3.7-28.1
		c-0.5-16.9,0-33.8,0.2-50.7c0-3.9-3.8-6.8-7.4-5.3c-3,1.3-6.1,2.7-8.8,4.6c-9.1,6.1-17.7,12.6-24.7,21.5
		c-4.6,5.8-10.3,10.9-16.2,15.4c-7.7,5.8-16.5,9.8-26.5,9.7c-5.6,0-11.5,1.5-16.6-2.6c1.5,1.6,2.9,3.2,4.4,4.8
		c-10.7-2.7-20.4-6.4-20.2-20.8c-1.3,1.6-1.8,2-1.8,2.4c0,14.2,7.5,24.4,21.4,27.9c4.2,1,8.5,1.8,12.8,2.2
		c12.1,1.1,24.2,0.9,35.4-4.9c7.6-3.9,7.2-3.9,8,4.7c1.8,19.5,3.9,39,6.1,58.5c0.4,3.6,1.7,7,2.4,10.6c1.4,7.6,2.4,15.3,3.9,22.9
		c2.1,10.9,5.1,21.6,6.6,32.5c2.6,18.6,4.1,37.4,6.5,56c0.4,3.2-0.5,4.6-2.9,5.9c-9.9,5.7-19.9,11.4-29.7,17.3
		c-4.1,2.5-8.1,5.3-12.1,8c0.2,0.2,0.3,0.5,0.5,0.7c14-7.9,27.9-15.8,41.9-23.7c0.2,0.4,0.4,0.8,0.7,1.2
		c-23.2,15.6-46.4,31.1-70.4,47.2c0.9-1.8,1.1-3,1.8-3.7c5-5.2,9.8-10.2,11.4-17.8c1.1-5.3,3.6-10.3,5.6-15.4
		c0.4-1.1,1.2-2.2,1.9-3.1c1-1.3,3-2.5,3.1-3.9c1-13.4,1.7-26.8,2.5-40.2c0.1-1.8,0.2-3.7,0.3-5.5c0.6,0,1.2,0,1.8,0
		c0.8,9.7,1.5,19.4,2.4,29.9c0.9-8.7,2.3-16.7,2.6-24.7c0.6-18.5-2.5-36.6-5.8-54.7c-1.8-10.2-3.8-20.4-5.5-30.6
		c-1.4-8.6-2.6-17.3-3.4-26c-0.9-9.6-1.5-19.3,4-29.8c-4.1,0-7.5-0.7-10.5,0.2c-3.4,1-6.9,2.8-9.6,5.1c-17.4,14-34.5,28.3-51.8,42.3
		c-4.9,4-10.3,7.3-16,11.3c-1-7.4-2-13.3-2.6-19.3c-0.9-9.8-1.4-19.6-2.1-29.3c-0.6-7.9-1.9-15.8-1.7-23.6c0.3-10,0.4-20.1,6.5-30.2
		c-2.5,0.7-4,0.8-5.2,1.5c-5.4,3.6-10.9,7.1-16,11c-8.6,6.6-16.6,13.8-25.4,20.1c-13.5,9.6-27.4,18.7-41.4,27.7
		c-5.2,3.4-10.9,5.9-16.6,8.9c-0.5-1.3-0.9-1.9-1-2.5c-0.6-8.6-0.9-17.2-1.8-25.7c-0.6-5.7-1.8-11.4-2.7-17.1
		c-1.3-8.7-2.5-17.4-3.7-26c-0.9-6.3-2.5-12.6-2.4-18.9c0.1-7.7,1.4-15.5,2.4-23.2c0.4-3.5-1-5.7-4.5-5.5c-4.1,0.2-8.2,1-12.2,1.6
		c-17.8,2.5-35.4,5.9-52.1,12.7c-14.3,5.9-29,11.1-42.3,18.7c-12.5,7.2-23.8,16.7-35,26c-5.3,4.4-9.3,10.5-13.5,16.1
		c-3,4-5.1,8.6-8,12.7c-6.1,8.5-13.1,16.9-14,27.7c-1.1,12.7-2.4,25.6-1.1,38.2c2.2,22.7,6.2,45.3,9.5,67.9
		c0.7,4.9,1.8,9.8,2.5,14.7c1.4,9,2.6,18,3.9,27c2.4,17.2,4.7,34.4,7.2,51.6c0.4,2.9-0.9,4.1-3.4,4.2c-5.3,0.1-10.8,0.9-15.9-0.1
		c-7.3-1.3-14.4-3.6-21.4-6.1c-11.8-4.2-24.1-7.8-32-18.8c-1.6-2.3-3.6-4.3-5.7-6.2c-9.4-8.9-16.8-19-21.3-31.2
		c-2.3-6.2-5-12.2-7-18.5c-2.7-8.3-6.5-16.7-6.9-25.2c-0.9-17,1.9-33.4,11.9-48.2c4.8-7.1,11.5-8.5,18.4-8.2
		c5.5,0.3,10.6,3.3,12.6,9.5c0.5,1.5,2.5,3.7,3.2,3.5c1.8-0.5,3.9-1.9,4.9-3.5c3.4-5.7,1.9-11.3-0.7-17c-4-9-9.7-16.9-18.2-21.6
		c-10.3-5.8-21.3-4.3-31.7,0.2c-23,9.9-31.7,29.2-33.8,52.5c-1.2,14.2-1.9,28.5,1.6,42.6c2.2,8.8,3.6,17.9,6.7,26.4
		c4.5,12,11.1,22.8,19.4,32.8c10.7,13,23.1,24,37.8,31.9c11.2,6,23.3,10.1,36.2,11.5c14.4,1.5,28.7,3.4,43.1,1.2
		c3.1-0.5,3.8,0.5,4,3.2c0.7,9.7,1,19.6,2.4,29.2c2.4,15.8,3.3,31.7,2.6,47.5c-0.8,19.1-2.2,38.1-4,57.1c-1,10.8-2.7,21.6-5.2,32.2
		c-3.2,14-6.4,28.1-15.8,39.8c-0.7,0.9-0.3,2.7-0.4,4.1c1.2-0.8,2.7-1.3,3.5-2.4c8.2-11.5,17.4-22.2,28.6-31.1
		c5.7-4.5,12-8.2,18-12.3c11.4-7.6,22.3-16.1,34.3-22.6c16.4-8.9,33.6-16.3,50.7-24.4c0-0.2-0.2-1.9,0-2c1.3-0.4,2.8-0.6,4.2-0.5
		c0.9,0,2,1.1,2.7,0.9c5.2-1.4,10.3-2.9,15.4-4.5c-0.1-0.5-0.2-0.9-0.3-1.4c-5.8,0.9-11.6,1.9-17.5,2.6c-2.2,0.3-4.4-0.3-6.7-0.5
		c-0.2-0.9-0.4-1.8-0.6-2.7c-18.3,7.8-37.1,14.6-54.7,23.7c-17.5,9-33.8,20.3-50.7,30.6c3.9-32.3,6.1-64.1,5.5-96.2
		c0.8-0.1,1.5-0.1,2.3-0.2c0.5,4,0.9,8,1.5,12.9c0.4-7.1,0.6-13.5,1.2-19.8c0.3-2.8,2.3-5.6,2.2-8.4c-0.4-11.1-1.5-22.3-1.8-33.4
		c-0.1-3.8,1.5-7.6,2.3-11.4c0.8,0,1.6,0.1,2.5,0.1c3.1,17.8,2.1,36,4,53.9c0.6,0,1.2,0,1.7-0.1c0-18.9,0-37.7,0-56.5
		c5.2-0.2,5.2-0.2,3.6,3.3c-0.2,0.5,0.2,1.3,0.2,1.9c0.2,4.9,0.5,9.7,0.6,14.6c0.2,7.7,0.3,15.3,0.4,23c-0.7,2.2-0.7,4.2,2.4,3.1
		c0.4-9.6,0.8-19.1,1.3-28.7c0.4-6.5,1.2-13.1,1.3-19.6c0-5.1-1-10.2-1.1-15.3c0-1.6,1-3.9,2.3-4.6c4.4-2.6,9.4-4.3,13.7-6.9
		c8.5-5.1,16.7-10.7,24.9-16.1c3-2,5.9-4.3,8.8-6.4c0.4,0.4,0.8,0.8,1.2,1.2c-0.9,1.2-1.8,2.4-2.8,3.6c-3.7,4.7-7.9,9-11.1,14
		c-3.5,5.6-6,11.7-9,17.6c-7.9,15.8-7.3,32.2-3.3,48.8c2.4,9.9,8.7,17.3,15.9,24.1c9.3,8.9,19.8,16.2,32,19.6
		c16.7,4.8,34.1,4.6,51.3,2.7c13.7-1.5,27.7-2.8,41-6.5c13-3.6,26-8.7,37.5-15.6c16-9.6,30.5-21.5,45.8-32.3c1.2-0.9,2.8-1.4,4.1-2
		c0,2.6,0.6,4.8-0.1,6.5c-1,2.2-3.1,3.8-4.6,5.7c0.5,0.5,0.9,0.9,1.4,1.4c34.9-39.1,76.2-69.7,123.2-95c0,24.6,4.4,48.3-5.9,71
		c1.9-2.7,3.7-5.4,5.6-8.2c1.6,2.6,2.2,5,2.4,7.4c0.1,1.9,0.4,4.8-0.6,5.4c-3.5,2.3-7.4,3.9-11.4,5.8c-1.7-7.7-3.2-15.2-4.9-22.6
		c-0.3-1.5-1.2-2.9-1.8-4.3c-1.6,0.8-3.2,1.4-4.7,2.4c-0.9,0.6-1.5,1.8-2.3,2.6c-10.8,11.3-20.4,24-34.4,31.6
		c1.2,5.9,1.7,11.6,3.5,16.8c2.6,7.7,2.5,14.4-3.5,20.4c-0.1,0.1,0,0.6,0.1,1.5c1.6-1.7,2.7-3.5,4.2-4.5c0.8-0.5,3.4,0.2,3.5,0.8
		c2.1,8.9,4.7,17.7,5.5,26.8c1.7,17.9-3.8,34-14,48.7c-7.2,10.5-18,15.9-29.2,20.9c-3.9,1.7-7.9,3.2-11.8,4.8c1,1,1.7,1.2,2.3,1
		c17.9-4.1,33.5-11.8,44.7-27c7.6-10.3,15.8-20.2,16-34.2c0.1-3.6,2.2-7.3,3.9-12.2c1,2.7,1.5,3.9,2.2,5.6c0.4-3.3,1.4-6.1,1.1-8.8
		c-1.7-13.8-3.7-27.5-5.4-41.2c-0.2-1.7,0.1-4.2,1.2-5.3c2.6-2.6,5.9-4.7,9.7-7.6c2.1,9.2,3.9,17.4,5.8,25.6
		c0.4-0.1,0.7-0.1,1.1-0.2c-0.5-3.5-0.9-7.1-1.4-11.1c1.7,0.3,2.9,0.6,4.6,1c-0.4-5.3-0.7-10-1-14.7c1.7-0.3,3.2-0.6,4.8-1
		c0.5,1.8,1,3.3,1.5,4.9c0.6-4.9-1.3-10.1,0.2-13.9c1.5-3.6,6.7-5.6,11-8.8c2.8,14.7,5.3,27.9,7.7,41.1c0.2,0.9,0,2.2-0.6,2.7
		c-3.3,2.9-6.7,5.6-10.6,8.9c-0.9-4.9-1.6-8.7-2.6-14.1c-2,2.6-4.1,4.1-4,5.4c0.5,6.1-5.1,7-7.9,10.2c-1.1,1.2-2.5,2.7-2.7,4.2
		c-0.6,5.6,1.3,12-5.6,15.3c-0.1,0.1,0,0.5,0,1.7c11.6-9.1,22.8-17.9,34.9-27.4c0.9,4.5,1.2,7.3,2.1,9.9c1.6,4.6-0.1,7.3-3.8,10
		c-6.3,4.6-12.3,9.6-18.3,14.5c-2.9,2.4-5.6,5.1-8.4,7.6c10.9-6.5,20-15.3,32-20.7c0.6,2.9,1,4.9,1.5,6.8c0.6,2,1.3,4,2,5.9
		c0.5-1.9,0.4-3.7,0.2-5.5c-1.1-7.6,1.7-12.1,9.1-14.5c1.9-0.6,3.8-1.2,5.7-1.8c6.3-2,12.5-4.6,19-5.8c10.9-2,19.9,3.2,28.7,8.8
		c2.1,1.3,4.8,1.7,7.2,2.5c0.3-0.5,0.6-1.1,0.9-1.6c-1.6-1.8-3.4-3.4-4.8-5.3c-2.7-3.9-6-7.7-7.5-12c-2.8-7.8-4.5-16-6.5-24
		c-0.6-2.2-0.7-4.6-1.2-7.6c2.1,1.7,3.6,2.9,5.3,4.3c-0.5-10.9-0.9-21-1.5-31.2c-0.2-2.8,0-4.8,3.5-5.3c2.9-0.5,5.7-1.6,8.5-2.4
		c0-0.6-0.1-1.2-0.1-1.8c-2.6,0-5.2-0.2-7.8,0.1c-3.2,0.4-5.1-0.3-5.2-4c0-6.3-0.3-12.6-0.4-18.9c0-3.3,0.5-6.6,0.3-9.9
		c-0.1-1.6-1.3-3.2-2-4.8c-1.3,0.7-2.8,1.4-4,2.3c-1.1,0.8-2,1.7-2.9,2.7c-6.8,7.1-13.2,14.3-9.7,25.3c0.8,2.7,1.1,5.5,1.5,8.3
		c1.6,9.2-1.2,14.8-8.9,17.2c-0.3-2.4-0.8-4.6-0.8-6.9c-0.1-13-0.1-25.9-0.3-38.9c0-1.4,0-3.8-0.8-4.1c-4.1-1.9-2.6-5.1-2.5-8.1
		c-0.1-1.6-0.4-3.2-0.3-4.8c0.2-9.9,0.3-19.8,0.8-29.7c0.1-1.4,1.1-3.6,2.2-4c9.8-3.9,19.7-7.7,30.4-7.8c1.3,5.1,2.4,9.8,3.7,14.4
		c6.5,22.3,11,45,12.7,68.3c0.1,1.5,2.3,3.3,4,4.2c0.7,0.4,3.3-1,3.6-2c5.7-17.9,18-31.8,29.3-45.9c10.9-13.6,23.5-25.7,37.5-36.2
		c3.7-2.8,7.4-6.3,11.6-7.4c4.3-1.1,7.4-2.5,9.1-7.6c-1.8-1.3-3.7-3.7-6-4.1C732.2,238.5,724,236.2,715.9,236.3z M503.9,277.9
		c3.1,5.8-0.9,18.2-6.7,22.2C499.4,292.6,501.6,285.6,503.9,277.9z M10.3,187.9c1.4,18.9-1.7,38.3,7.5,56.7
		C7.2,242,5.2,197.1,10.3,187.9z M23,164.9c-0.8-0.4-1.6-0.7-2.4-1c1.5-3.2,3-6.5,4.5-9.7c0.8,0.3,1.5,0.7,2.3,1
		C25.9,158.4,24.5,161.6,23,164.9z M229.1,289.6c-12.1,9.7-24.8,18.4-40.8,24.3c-0.5-6.1-1-11.6-1.5-17c-1.6-15.6-3.3-31.1-5-46.7
		c-1.3-11.7-2.5-23.3-4-35c-0.7-5.4-2.1-10.7-2.8-16.1c-1.3-9.9-2.4-19.9-3.3-29.8c-1.3-14-3.4-28-3.1-41.9
		c0.2-11.4,3.2-22.9,5.5-34.2c2.7-13.2,12.5-21.6,21.4-30.7c13.2-13.4,28.7-23.3,45.9-30.6c4.4-1.9,9.1-3.2,14.8-5.3
		c-1.3,5-3.2,8.6-2.9,12.1c0.6,9.4,1.7,18.9,3.5,28.2c3.7,19.9,8,39.6,11.9,59.4c0.6,2.8,0.4,5.8,0.8,8.7c1.1,8.9,1.1,9.9-7.5,10
		c-7.9,0-16.3-1.6-23.7-4.3c-9.4-3.5-13-11.7-13.2-21.9c-1.3,2.8-1.8,6.4-3.9,8.4c-5.6,5.2-3,11.5-3,17.3c0,2,1.6,4.4,3.1,6
		c5.9,6.4,13.4,10,22,10.1c8.4,0.1,16.7-0.8,25.1-1.5c5.7-0.5,6.1-0.1,6.6,5.6c0.9,11,2.7,22,3.1,33.1c0.3,6.1-1.3,12.3-2.2,18.4
		c-1.3,8-0.4,16.5-4.8,23.9c-2.7,4.5-4.9,9.2-7.3,13.9C255.9,269.4,242.2,279.1,229.1,289.6z M238.4,147c-3.9,2-5.1,2-8.5-2.5
		c-3-4-7.7-7.7-5.1-14C226.5,138.2,231.1,143.6,238.4,147z M259.9,285c4.3-4.7,8.1-10.3,13.2-13.9c18.5-12.8,36.8-26.3,59.4-31.2
		c2.3-0.5,4.5-1.5,6.8-2.3c0.5,0.6,0.8,1.2,1.1,1.9c-31,14.6-60.9,30.8-83.1,58.2c-0.5-0.5-1-1-1.5-1.5c0.7-1,1.5-2,1.9-3.2
		c0.6-1.7,1-3.6,1.4-5.4C259.3,286.7,259.3,285.6,259.9,285z M229.4,379.8c0.9,0.1,2.2-0.1,2.6,0.4c2.5,3.6,4.8,7.3,7.2,10.9
		c-0.6,0.4-1.2,0.8-1.7,1.3c-3-3.8-6-7.7-9.1-11.5C228.8,380.5,229.1,380.1,229.4,379.8z M287.8,418c-1.4-0.1-2.9-0.3-4.3-0.4
		c-11.6-0.9-23.3-2.3-33.3-8.5c-7.9-4.8-14.8-11.3-22.1-17c-0.5-0.4-0.8-1.2-1.3-1.5c-8.2-4.2-7.3-12.1-7.9-19.4
		c-0.1-1,1-2.2,1.5-3.2c0.8,0.9,1.9,1.7,2.2,2.7c3,10.6,7.9,19.9,17.6,26.1c2.7,1.8,5,4.4,7.4,6.6c9.5,8.5,21.8,8.9,33.3,11.5
		c2.3,0.5,4.7,1,7,1.4C287.9,416.9,287.8,417.4,287.8,418z M447.8,359.2c4-3.6,8-7.1,12.6-11.2C459.8,353.3,452.8,359.7,447.8,359.2
		z M474.8,276.2c-1.1,6.3-0.7,12.9-1.9,19.2c-3.3,16.9-12.8,30.5-24.5,42.6c-16.7,17.3-35.9,31.7-56.1,44.4
		c-18.9,11.8-39.7,20.1-61.8,24.2c-6.5,1.2-13,1.7-19.6,2.6c-4.7,0.6-9.5,2.1-14,1.5c-14.5-1.8-29.1-3.8-41.9-11.9
		c-6.6-4.2-10.4-10.4-11.4-17.9c-1.2-8.8-2.9-17.7-2.4-26.5c1.1-22.8,9.9-42.3,26.8-58.4c15.3-14.6,32.2-26.7,50.5-36.8
		c17.3-9.5,35-18.8,55.1-20.9c14.1-1.5,28.3-1,41.7,3.9c9.6,3.5,18.4,9.5,22.8,18.9c3.7,7.8,2.2,16.2-3.1,23.6
		c-13,18-30,31.1-50.7,39.5c-7.2,2.9-14.6,6.3-22.1,6.8c-8.2,0.5-17.4,1.4-24.4-5.7c-4.2-4.3-5.2-9.4-4-15.2
		c2.8-14.2,12.9-20.4,25.3-24.5c8.7-2.9,11.7-0.8,12.3,8.9c4-0.5,5.7-3.3,6.1-6.7c0.5-4-3.2-9.4-8-10.2c-5.6-1-11.8-1.9-17.2-0.6
		c-10.4,2.5-21.1,5.3-30.3,10.6c-7.6,4.4-13.2,12.4-19.6,18.9c-0.5,0.5-1.1,1.9-0.8,2.3c4.7,6.5-4.2,8.6-4.5,13.5
		c0,0.6-3.1,0.9-5.2,1.5c-1.8,5.3-1,11,1.1,16.4c0.6,1.5,2.2,3.2,3.8,3.8c8.4,2.9,16.7,7,25.4,7.9c15,1.6,30-0.4,44.4-5.9
		c17-6.5,32-15.9,46.1-27.1c11.9-9.4,20.8-21.1,29-33.8c7.3-11.4,7.7-27.3-1-37.6c-2.9-3.4-7.2-6-11.4-7.7
		c-9.5-4-19.1-7.6-28.9-10.6c-10.5-3.3-21.2-2.6-32-1.2c-24.7,3.1-47.8,10.6-69.5,22.6c-8.1,4.5-16.5,8.7-24.6,13.3
		c-3.6,2.1-6.8,4.9-10.1,7.3c-0.4-0.6-1-1.2-1.6-1.8c2.8-2.8,5.2-6.8,8.6-8.2c3-1.3,3.8-3,5-5.3c2.5-4.8,5.3-9.4,7.9-14.1
		c3.7-6.8,7.3-13.7,11-20.5c1.1-2,2.3-3.9,3.7-6.2c1.4,4.8-0.4,10.3-6.3,20.7c1,1.5,1.9,2.8,2.7,4.1c1-3,2.1-6.6,3.4-10
		c1.7-4.6,4.2-9.1,5.1-13.8c1-5,0.4-10.3,0.6-15.5c0.1-1.3,1-2.5,1.5-3.7c0.5,0.2,0.9,0.3,1.4,0.5c0.3,1.7,0.5,3.5,0.8,5.2
		c0.5,0.1,1,0.3,1.5,0.4c2-7.7,4.1-15.3,6.1-23c0.4,0.1,0.8,0.1,1.2,0.2c-0.3,4.2-0.5,8.3-0.8,13.1c5.4-11,5.3-11,5.2-15
		c-0.2-5.6,0-11.3-0.5-16.9c-0.5-6.2-1.7-12.4-2.2-18.7c-0.1-1.4,1.1-3.5,2.4-4.3c7.1-4.5,14.4-8.7,21.6-13.1
		c7.5-4.5,14.9-9.1,22.4-13.6c0.6-0.4,1.5-0.4,2.6-0.7c-0.1,17,5.3,32.7,8.8,48.8c2.8,12.7,2.6,25.6-5.1,36.7
		c-3,4.3-8.9,6.7-13.3,10.1c-1.4,1.1-2.4,2.7-3.6,4c1.6,0.9,3.1,2.4,4.8,2.7c17.3,2.5,29.9-7.7,43.1-16.3c2.9-1.9,5.8-3.9,8.5-6.1
		c15.8-13,31.5-26.1,47.2-39.2c1.4-1.1,2.7-2.3,4.4-3.9c0.5,8.5,0.5,16.3,1.6,23.8c2.2,14.9,6,29.6,7.6,44.5
		C473.6,236,478.3,255.9,474.8,276.2z M314.2,303.4c-2.1,4.1-4.7,8-6.2,12.2s-1.9,8.8-2.9,13.7C298.9,320.4,305.3,310.5,314.2,303.4
		z M524.5,385.5c-1.4-4.1-2.9-8.2-4.6-13.2c3-2.9,6.8-6.4,11.1-10.5C537.1,377.6,535.9,381.3,524.5,385.5z M573,286.7
		c0.4,0,0.9,0.1,1.4,0.1c2.3,5.6,1.3,15-2.5,17.1C572.3,297.9,572.6,292.3,573,286.7z M601.5,302.7c-0.2,0.4-0.7,0.9-0.7,1.3
		c0.4,10.3-6.6,17.4-11.5,25.1c-3.5,5.5-2.3,10.9-1.9,16.3c0.8,11,2.3,22,3.6,33c0.3,2.5,1.2,4.9,2,8.5c9.3-8.2,12.8-20,23.4-25.7
		c4.8,17.4,4.9,35.7,14.8,52.9c-17.9-5.3-32.3,2.1-48.1,8.6c-0.9-5.3-1.6-10.2-2.4-15.1c0.4-0.1,0.9-0.3,1.3-0.4
		c1,1.3,2,2.7,3.2,4.4c0.5-0.9,1-1.5,0.9-1.9c-1.3-6.6,2.1-10,7.5-12.7c5.8-2.9,11.3-6.3,16.9-9.6c1.6-1,3-2.4,4.5-3.7
		c-0.2-0.6-0.4-1.1-0.5-1.7c-1.6,0.2-3.4,0.1-4.8,0.8c-5.9,3.1-11.6,6.4-17.4,9.6c-1.8,1-3.7,2-6.7,3.7c-1.1-8.8-2.2-16.6-2.9-24.4
		c-1.2-12-2.2-24-3.1-36.1c-0.2-2.7,0.6-5.5,0.7-8.2c0-1-0.7-2-1.1-2.9c-1.1,0.6-2.5,0.9-3.1,1.8c-3.7,5.1-7.3,10.3-10.9,15.4
		c-0.9,1.2-1.9,2.4-3.6,3.2c4.7-13.2,3.2-27.9,12.5-40c0,2.1,0.1,4.2,0,6.4c-0.2,2.3-0.6,4.5-0.9,6.8c0.5,0.1,0.9,0.1,1.4,0.2
		c1.9-13.3,3.7-26.6,5.6-39.8c0.4-0.1,0.9-0.1,1.3-0.2c1.1,10,2.2,20,3.4,30.7c1.7-7.7,3.3-14.8,4.8-22c0.5,0,1,0,1.6,0
		c0.5,1.5,1,3,1.6,4.9c0.7-1.1,1.4-2,2-2.9c0.3,0,0.7,0,1,0c0,7.4,0,14.8,0,22.2c0.2,0.1,0.4,0.2,0.6,0.4c0.8-1.9,1.4-3.9,2.4-5.7
		C599.2,304.6,600.5,303.7,601.5,302.7z M667.9,291.7c-0.4,0-0.8,0-1.1,0c0-3.3,0-6.5,0-9.8c0.4,0,0.7,0,1.1,0
		C667.9,285.2,667.9,288.4,667.9,291.7z M673.7,294.7c1-16.4-1.5-31.8-6.3-48.1c20.1-2.7,39.9-6.5,60.7-2.4
		C706.5,257.8,689.1,275.1,673.7,294.7z"/>
	<path class="st0" d="M462.5,13.1c-1.1-1.7-2.5-3.1-4.3-5c-1.5,1.9-2.4,3.1-3.8,4.9c2.4,1.1,4.2,2.1,6.2,2.6
		C461,15.7,462.7,13.5,462.5,13.1z"/>
	<path class="st0" d="M675.1,166.1c-0.5,3.5,0,7.1,0.4,10.6c0.3,2.6,1.4,5.1,1.6,7.7c0.6,7.8,0.9,15.6,1.4,23.4
		c1.1-1.4,1.5-3,1.5-4.5c0.2-6.3,0.3-12.6,0.7-18.9c0.1-1.2,1.2-2.4,1.9-3.5c0.7,0.9,1.5,1.8,2.1,2.4c1-2.1,2.5-4.5,3.2-7.2
		c0.8-2.8,1.4-5.8,1.3-8.8c-0.1-3.8-2.9-5.3-6.4-5.6C679.1,161.3,675.7,162.1,675.1,166.1z"/>
	<path class="st0" d="M418.1,25.2c2.2-3.5,6.6-6.8,3.8-11.3c-1.3-2.1-5.7-4.3-7.8-3.6c-3.1,1-6.5,4.1-7.8,7.2
		c-0.7,1.7,2,5.4,3.9,7.7c1.1,1.3,3.4,1.8,5.1,2.7C416.3,26.9,417.5,26.2,418.1,25.2z"/>
	<path class="st0" d="M94,70.2c-3.9-3.6-6.7-5-8.7-1.4c-0.7,1.2,1.1,3.8,1.8,5.7C89.2,73.2,91.3,71.9,94,70.2z"/>
	<path class="st0" d="M539.7,241.7c0.2-0.2-2-3.5-3.3-3.6c-4.5-0.7-7.4,1.9-8.3,6.4c1.3,1.7,2.7,3.3,4,5
		C534.7,246.9,537.4,244.4,539.7,241.7z"/>
	<path class="st0" d="M680.3,130.3c-0.9,0.1-2.2,1.9-2.5,3.1c-0.2,0.7,1.2,2.4,2.1,2.5c1.1,0.1,2.3-1,3.4-1.5c0.5-0.8,1-1.7,1.5-2.5
		C683.3,131.3,681.7,130.1,680.3,130.3z"/>
	<path class="st0" d="M676.5,82.7c-3.5,5.4-3.5,12.7,0,13.4c1.5,0.3,4.4-1.4,5.3-2.9C684.6,88.4,682.8,85,676.5,82.7z"/>
	<path class="st0" d="M698.3,187.3c-0.8,1.8-1.7,3.6-2.5,5.4c1.8,0.5,3.7,1.1,5.5,1.6c0.5-0.8,1-1.7,1.4-2.5
		C701.2,190.3,699.8,188.8,698.3,187.3z"/>
	<path class="st0" d="M717.7,170.6c1.5-9.5,3.2-19,4.4-28.6c0.9-7.3-4.3-11.5-10.8-9.8c-6.7,1.7-10.1,18.6-4,23.4
		c1.4,1.1,2.5,3.4,2.5,5.2c0.2,15.7,0.1,31.3,0.2,47c0,4,0,8,0,13.1c1.2-1.4,1.8-1.8,1.8-2.1c0.6-10.5,1.3-21,1.7-31.5
		c0.4-9.6,0.4-19.2,0.8-28.8c0-1.2,0.9-2.3,1.4-3.5c0.5,0.1,0.9,0.2,1.4,0.3c0,5,0,10.2,0,15.3C717.3,170.6,717.5,170.6,717.7,170.6
		z"/>
	<path class="st0" d="M355.3,28.4c0.8,7.8,1.1,15.5,1.6,23.3c0.3,5.4,0.5,10.7,0.8,16.1c0.5,0,1.1,0,1.6-0.1
		c0.9-13.6,1.7-27.3,2.6-41.2c0.9,0.6,1.9,1.3,2.2,1.5c1.8-2.8,3.5-5.7,5.4-8.4c3-4.1,5.1-9.4,2.7-13.3c-1.9-3.2-7.3-4.2-11.2-6.1
		c-0.7-0.3-1.8-0.3-2.5,0c-3.8,1.6-9-1-11.5,3.9c-1,1.9-1.2,4.1-1.9,6.1c-2,6.4,0.9,12.1,7.1,14.7C353.5,25.5,355.1,27.1,355.3,28.4
		z"/>
	<path class="st0" d="M515.8,286.2c0.6,0,1.2,0,1.9,0.1c0-4.9,0-9.8,0-14.7c-0.2,0-0.4,0-0.6,0C516.7,276.5,516.2,281.4,515.8,286.2
		z"/>
</g>
<g class="st1">
	<path class="st2" d="M601.5,302.7c-0.1,3-1.6,6.2,2.5,8.1c0.7,0.3,0.8,2.7,0.8,4.1c0.1,13,0.1,25.9,0.3,38.9c0,2.3,0.5,4.6,0.8,6.9
		c7.7-2.3,10.5-8,8.9-17.2c-0.5-2.8-0.7-5.6-1.5-8.3c-3.5-11.1,2.9-18.3,9.7-25.3c0.9-1,1.9-1.9,2.9-2.7c1.3-0.9,2.7-1.5,4-2.3
		c0.7,1.6,1.9,3.2,2,4.8c0.2,3.3-0.4,6.6-0.3,9.9c0,6.3,0.3,12.6,0.4,18.9c0,3.7,1.9,4.4,5.2,4c2.6-0.3,5.2-0.1,7.8-0.1
		c0,0.6,0.1,1.2,0.1,1.8c-2.8,0.8-5.6,1.9-8.5,2.4c-3.4,0.6-3.6,2.5-3.5,5.3c0.6,10.2,1,20.4,1.5,31.2c-1.6-1.3-3.1-2.5-5.3-4.3
		c0.5,3,0.6,5.4,1.2,7.6c2,8,3.8,16.2,6.5,24c1.6,4.4,4.8,8.1,7.5,12c1.3,1.9,3.2,3.6,4.8,5.3c-0.3,0.5-0.6,1.1-0.9,1.6
		c-2.4-0.8-5.1-1.2-7.2-2.5c-8.8-5.6-17.8-10.8-28.7-8.8c-6.5,1.2-12.6,3.8-19,5.8c-1.9,0.6-3.8,1.2-5.7,1.8
		c-7.3,2.4-10.2,6.9-9.1,14.5c0.2,1.8,0.3,3.6-0.2,5.5c-0.7-2-1.4-3.9-2-5.9c-0.5-1.9-0.9-3.9-1.5-6.8c-12,5.4-21.2,14.3-32,20.7
		c2.8-2.5,5.5-5.2,8.4-7.6c6-4.9,12-9.9,18.3-14.5c3.7-2.7,5.4-5.4,3.8-10c-0.9-2.6-1.2-5.4-2.1-9.9c-12.1,9.5-23.3,18.3-34.9,27.4
		c0-1.2-0.1-1.7,0-1.7c6.8-3.3,4.9-9.7,5.6-15.3c0.2-1.5,1.6-3,2.7-4.2c2.8-3.2,8.4-4.1,7.9-10.2c-0.1-1.3,2-2.9,4-5.4
		c1,5.4,1.7,9.2,2.6,14.1c3.9-3.2,7.3-5.9,10.6-8.9c0.6-0.5,0.7-1.8,0.6-2.7c-2.4-13.2-4.9-26.4-7.7-41.1c-4.3,3.3-9.5,5.3-11,8.8
		c-1.6,3.7,0.4,9-0.2,13.9c-0.5-1.6-1-3.2-1.5-4.9c-1.6,0.3-3.2,0.6-4.8,1c0.3,4.7,0.7,9.4,1,14.7c-1.7-0.4-3-0.6-4.6-1
		c0.5,4,1,7.6,1.4,11.1c-0.4,0.1-0.7,0.1-1.1,0.2c-1.8-8.2-3.7-16.4-5.8-25.6c-3.9,2.9-7.1,4.9-9.7,7.6c-1.1,1.1-1.4,3.6-1.2,5.3
		c1.7,13.7,3.8,27.5,5.4,41.2c0.3,2.7-0.6,5.6-1.1,8.8c-0.7-1.7-1.1-3-2.2-5.6c-1.6,5-3.8,8.6-3.9,12.2c-0.2,13.9-8.4,23.8-16,34.2
		c-11.2,15.2-26.8,22.9-44.7,27c-0.6,0.1-1.3,0-2.3-1c4-1.6,8-3.1,11.8-4.8c11.2-4.9,22-10.4,29.2-20.9c10.2-14.7,15.7-30.8,14-48.7
		c-0.9-9-3.5-17.9-5.5-26.8c-0.1-0.6-2.8-1.3-3.5-0.8c-1.6,1-2.7,2.7-4.2,4.5c-0.1-0.9-0.3-1.3-0.1-1.5c6-6,6.1-12.7,3.5-20.4
		c-1.8-5.3-2.4-10.9-3.5-16.8c14-7.6,23.6-20.2,34.4-31.6c0.8-0.8,1.4-2,2.3-2.6c1.4-1,3.1-1.6,4.7-2.4c0.6,1.4,1.5,2.8,1.8,4.3
		c1.7,7.4,3.2,14.8,4.9,22.6c4-1.9,8-3.5,11.4-5.8c1-0.7,0.7-3.6,0.6-5.4c-0.2-2.4-0.8-4.7-2.4-7.4c-1.9,2.7-3.7,5.4-5.6,8.2
		c10.3-22.6,5.9-46.4,5.9-71c-46.9,25.2-88.3,55.8-123.2,95c-0.5-0.5-0.9-0.9-1.4-1.4c1.6-1.9,3.6-3.5,4.6-5.7
		c0.7-1.6,0.1-3.8,0.1-6.5c-1.3,0.6-2.9,1.1-4.1,2c-15.2,10.9-29.8,22.8-45.8,32.3c-11.5,6.9-24.5,12-37.5,15.6
		c-13.2,3.7-27.2,5-41,6.5c-17.2,1.8-34.6,2-51.3-2.7c-12.2-3.5-22.7-10.7-32-19.6c-7.1-6.9-13.5-14.3-15.9-24.1
		c-4-16.6-4.5-33,3.3-48.8c3-5.9,5.5-12.1,9-17.6c3.2-5,7.4-9.4,11.1-14c0.9-1.2,1.8-2.4,2.8-3.6c-0.4-0.4-0.8-0.8-1.2-1.2
		c-2.9,2.1-5.8,4.4-8.8,6.4c-8.3,5.5-16.5,11-24.9,16.1c-4.4,2.7-9.3,4.3-13.7,6.9c-1.3,0.7-2.3,3.1-2.3,4.6
		c0.1,5.1,1.2,10.2,1.1,15.3c-0.1,6.5-0.9,13.1-1.3,19.6c-0.5,9.6-0.9,19.1-1.3,28.7h0.1c-3.2,1.1-3.2-0.9-3.2-3.1
		c-0.1-7.7-0.2-15.3-0.4-23c-0.1-4.9-0.4-9.7-0.6-14.6c0-0.6-0.4-1.4-0.2-1.9c1.6-3.5,1.6-3.5-3.6-3.3c0,18.8,0,37.7,0,56.5
		c-0.6,0-1.2,0-1.7,0.1c-1.9-17.9-0.9-36.2-4-53.9c-0.8,0-1.6-0.1-2.5-0.1c-0.8,3.8-2.4,7.6-2.3,11.4c0.3,11.1,1.4,22.3,1.8,33.4
		c0.1,2.8-1.9,5.5-2.2,8.4c-0.6,6.3-0.8,12.6-1.2,19.8c-0.6-4.9-1-8.9-1.5-12.9c-0.8,0.1-1.5,0.1-2.3,0.2c0.6,32-1.6,63.8-5.5,96.2
		c16.9-10.3,33.2-21.6,50.7-30.6c17.6-9.1,36.4-15.9,54.7-23.7c0.2,0.9,0.4,1.8,0.6,2.7c2.2,0.2,4.5,0.7,6.7,0.5
		c5.8-0.7,11.7-1.7,17.5-2.6c0.1,0.5,0.2,0.9,0.3,1.4c-5.1,1.5-10.3,3.1-15.4,4.5c-0.8,0.2-1.8-0.8-2.7-0.9
		c-1.4-0.1-2.9,0.1-4.2,0.5c-0.3,0.1,0,1.8,0,2c-17.1,8.1-34.3,15.5-50.7,24.4c-12,6.5-22.9,15-34.3,22.6c-6,4-12.3,7.8-18,12.3
		c-11.1,8.8-20.3,19.5-28.6,31.1c-0.8,1.1-2.3,1.6-3.5,2.4c0.1-1.4-0.3-3.2,0.4-4.1c9.3-11.7,12.6-25.8,15.8-39.8
		c2.4-10.6,4.1-21.4,5.2-32.2c1.8-19,3.2-38,4-57.1c0.7-15.9-0.2-31.7-2.6-47.5c-1.5-9.6-1.8-19.5-2.4-29.2c-0.2-2.7-0.8-3.7-4-3.2
		c-14.4,2.2-28.7,0.4-43.1-1.2c-12.9-1.4-25-5.5-36.2-11.5c-14.6-8.2-27-19.2-37.7-32.2c-8.2-10-14.9-20.9-19.4-32.8
		c-3.2-8.5-4.6-17.6-6.7-26.4C0.1,216.5,0.8,202.2,2,188c2-23.3,10.8-42.6,33.8-52.5c10.4-4.5,21.4-6,31.7-0.2
		c8.5,4.8,14.2,12.6,18.2,21.6c2.6,5.8,4.2,11.3,0.7,17c-1,1.6-3,3-4.9,3.5c-0.7,0.2-2.8-2.1-3.2-3.5c-2-6.3-7.1-9.3-12.6-9.5
		c-7-0.3-13.6,1.1-18.4,8.2c-10,14.8-12.8,31.2-11.9,48.2c0.4,8.5,4.3,16.9,6.9,25.2c2,6.3,4.8,12.3,7,18.5
		c4.5,12.2,11.9,22.4,21.3,31.2c2,1.9,4,4,5.7,6.2c7.9,11,20.2,14.6,32,18.8c7,2.5,14.1,4.8,21.4,6.1c5.1,0.9,10.6,0.2,15.9,0.1
		c2.6-0.1,3.9-1.3,3.4-4.2c-2.5-17.2-4.8-34.4-7.2-51.6c-1.3-9-2.5-18-3.9-27c-0.7-4.9-1.8-9.8-2.5-14.7
		c-3.3-22.6-7.3-45.1-9.5-67.9c-1.2-12.6,0-25.5,1.1-38.2c0.9-10.8,7.9-19.2,14-27.7c2.9-4.1,5-8.7,8-12.7
		c4.2-5.6,8.2-11.7,13.5-16.1c11.2-9.3,22.5-18.8,35-26c13.3-7.6,28-12.8,42.3-18.7c16.7-6.9,34.3-10.2,52.1-12.7
		C296,8.8,300,8,304.1,7.8c3.5-0.2,5,2,4.5,5.5c-0.9,7.7-2.3,15.4-2.4,23.2c0,6.3,1.5,12.6,2.4,18.9c1.2,8.7,2.4,17.4,3.7,26
		c0.9,5.7,2.1,11.3,2.7,17.1c0.8,8.6,1.2,17.2,1.8,25.7c0,0.6,0.4,1.2,1,2.5c5.7-3,11.4-5.6,16.6-8.9c13.9-9,27.8-18.1,41.4-27.7
		c8.8-6.2,16.8-13.5,25.4-20.1c5.1-3.9,10.6-7.5,16-11c1.1-0.7,2.7-0.8,5.2-1.5c-6.1,10.1-6.2,20.3-6.5,30.2
		c-0.2,7.9,1.1,15.7,1.7,23.6c0.7,9.8,1.2,19.6,2.1,29.3c0.5,6,1.6,11.9,2.6,19.3c5.7-4,11.1-7.3,16-11.3
		c17.3-14,34.5-28.3,51.8-42.3c2.8-2.3,6.2-4.1,9.6-5.1c3-0.8,6.4-0.2,10.5-0.2c-5.5,10.5-4.9,20.2-4,29.8c0.8,8.7,2,17.4,3.4,26
		c1.6,10.2,3.6,20.4,5.5,30.6c3.2,18.1,6.4,36.2,5.8,54.7c-0.3,8-1.6,16-2.6,24.7c-0.8-10.4-1.6-20.2-2.4-29.9c-0.6,0-1.2,0-1.8,0
		c-0.1,1.8-0.2,3.7-0.3,5.5c-0.8,13.4-1.5,26.8-2.5,40.2c-0.1,1.4-2.1,2.6-3.1,3.9c-0.7,1-1.5,2-1.9,3.1c-2,5.1-4.5,10.1-5.6,15.4
		c-1.6,7.6-6.4,12.6-11.4,17.8c-0.7,0.7-1,1.9-1.8,3.7c24-16.1,47.2-31.7,70.4-47.2c-0.2-0.4-0.4-0.8-0.7-1.2
		c-14,7.9-27.9,15.8-41.9,23.7c-0.2-0.2-0.3-0.5-0.5-0.7c4-2.7,8-5.5,12.1-8c9.8-5.9,19.8-11.6,29.7-17.3c2.4-1.4,3.3-2.8,2.9-5.9
		c-2.3-18.7-3.9-37.4-6.5-56c-1.5-10.9-4.5-21.7-6.6-32.5c-1.5-7.6-2.5-15.3-3.9-22.9c-0.6-3.6-2-7-2.4-10.6
		c-2.1-19.5-4.3-39-6.1-58.5c-0.8-8.5-0.4-8.6-8-4.7c-11.2,5.8-23.2,6-35.4,4.9c-4.3-0.4-8.6-1.1-12.8-2.2
		c-13.9-3.5-21.4-13.6-21.4-27.9c0-0.4,0.6-0.7,1.8-2.4c-0.1,14.4,9.6,18.1,20.2,20.8c-1.5-1.6-2.9-3.2-4.4-4.8
		c5.1,4.1,11,2.6,16.6,2.6c10,0,18.8-3.9,26.5-9.7c5.9-4.5,11.7-9.6,16.2-15.4c6.9-8.8,15.6-15.3,24.7-21.5c2.7-1.8,5.8-3.3,8.8-4.6
		c3.6-1.5,7.4,1.4,7.4,5.3c-0.1,16.9-0.7,33.8-0.2,50.7c0.3,9.4,2.3,18.7,3.7,28.1c3.3,22.7,6.5,45.4,10,68
		c3.3,21.3,7.1,42.6,10.5,63.9c0.7,4.2,0.7,8.6,1.5,12.8c0.2,1,2.6,2.6,3.4,2.3c9.1-2.7,18-5.7,26.9-8.9c0.8-0.3,1.4-2.5,1.2-3.6
		c-2.6-14.7-5.2-29.4-8.1-44.1c-2.2-11-5.8-21.8-7.4-32.9c-2.1-14.7-2.7-29.6-4.1-44.4c-1.2-13.2-2.6-26.4-4-39.6
		c-0.1-0.6-0.4-1.2-0.5-1.5c-5.8,0.4-11.4,0.9-17,1.3c-0.2-0.6-0.3-1.1-0.5-1.7c0.8-0.9,1.4-2.1,2.4-2.7
		c18.8-12.7,34-29.1,47.9-46.8c1.7-2.2,3-4.8,4.7-7c1-1.3,2.7-2,4-3c0.7,1.7,2.1,3.4,2,5c-0.5,5.9-1.5,11.8-2.5,17.7
		c-3.7,21.9-3.2,43.9-1.3,65.9c1.4,15.7,2.1,31.4,4,47.1c2,16.6,4.8,33.1,7.5,49.6c1.5,9.3,3.5,18.5,5.3,27.8
		c0.8,4.2,2.5,5.8,7.4,5.3c14.7-1.6,29.4-3,44.1-3.2c8.1-0.1,16.4,2.2,24.4,3.9c2.3,0.5,4.2,2.8,6,4.1c-1.7,5.1-4.8,6.5-9.1,7.6
		c-4.2,1.1-7.9,4.7-11.6,7.4c-14,10.5-26.7,22.6-37.5,36.2c-11.3,14.2-23.6,28-29.3,45.9c-0.3,1-2.9,2.4-3.6,2
		c-1.7-0.9-3.9-2.6-4-4.2c-1.6-23.3-6.2-45.9-12.7-68.3c-1.3-4.6-2.4-9.3-3.7-14.4c-10.7,0.2-20.5,4-30.4,7.8
		c-1.1,0.4-2.1,2.6-2.2,4c-0.4,9.9-0.6,19.8-0.8,29.7C601.1,299.5,601.4,301.1,601.5,302.7c-1,1.1-2.2,1.9-2.9,3.1
		c-1,1.8-1.6,3.8-2.4,5.7c-0.2-0.1-0.4-0.2-0.6-0.4c0-7.4,0-14.8,0-22.2c-0.3,0-0.7,0-1,0c-0.6,0.9-1.3,1.8-2,2.9
		c-0.6-1.9-1.1-3.4-1.6-4.9c-0.5,0-1,0-1.6,0c-1.6,7.2-3.1,14.3-4.8,22c-1.2-10.7-2.3-20.7-3.4-30.7c-0.4,0.1-0.9,0.1-1.3,0.2
		c-1.9,13.3-3.7,26.6-5.6,39.8c-0.5-0.1-0.9-0.1-1.4-0.2c0.3-2.3,0.7-4.5,0.9-6.8c0.1-2.1,0-4.2,0-6.4c-9.3,12.1-7.8,26.8-12.5,40
		c1.7-0.8,2.7-2,3.6-3.2c3.6-5.1,7.2-10.3,10.9-15.4c0.6-0.9,2.1-1.2,3.1-1.8c0.4,1,1.1,2,1.1,2.9c-0.1,2.7-0.9,5.5-0.7,8.2
		c0.9,12,1.9,24.1,3.1,36.1c0.8,7.8,1.9,15.6,2.9,24.4c3.1-1.7,4.9-2.7,6.7-3.7c5.8-3.2,11.6-6.5,17.4-9.6c1.4-0.7,3.2-0.5,4.8-0.8
		c0.2,0.6,0.4,1.1,0.5,1.7c-1.5,1.2-2.8,2.7-4.5,3.7c-5.6,3.3-11.1,6.7-16.9,9.6c-5.4,2.7-8.9,6.1-7.5,12.7c0.1,0.4-0.5,1-0.9,1.9
		c-1.3-1.8-2.3-3.1-3.2-4.4c-0.4,0.1-0.9,0.3-1.3,0.4c0.8,4.9,1.6,9.7,2.4,15.1c15.9-6.5,30.2-13.9,48.1-8.6
		c-9.9-17.2-10-35.5-14.8-52.9c-10.6,5.7-14.1,17.5-23.4,25.7c-0.9-3.5-1.7-6-2-8.5c-1.3-11-2.7-22-3.6-33
		c-0.4-5.4-1.7-10.8,1.9-16.3c5-7.7,11.9-14.8,11.5-25.1C600.8,303.6,601.2,303.1,601.5,302.7z M262.6,269.4
		c0.6,0.6,1.1,1.2,1.7,1.8c3.4-2.5,6.5-5.3,10.1-7.3c8.1-4.6,16.4-8.8,24.6-13.3c21.7-12.1,44.8-19.6,69.5-22.6
		c10.8-1.4,21.5-2,32,1.2c9.8,3.1,19.5,6.6,28.9,10.6c4.2,1.7,8.5,4.3,11.4,7.7c8.7,10.3,8.3,26.2,1,37.6
		c-8.1,12.7-17.1,24.4-29,33.8c-14.1,11.1-29.2,20.6-46.1,27.1c-14.5,5.5-29.4,7.5-44.4,5.9c-8.7-0.9-17-5-25.4-7.9
		c-1.5-0.5-3.2-2.2-3.8-3.8c-2.1-5.4-2.9-11.1-1.1-16.4c2.1-0.6,5.2-1,5.2-1.5c0.3-4.9,9.1-7,4.5-13.5c-0.3-0.4,0.3-1.7,0.8-2.3
		c6.4-6.5,11.9-14.5,19.6-18.9c9.1-5.2,19.9-8,30.3-10.6c5.4-1.3,11.5-0.4,17.2,0.6c4.8,0.8,8.5,6.2,8,10.2
		c-0.5,3.4-2.2,6.2-6.1,6.7c-0.7-9.7-3.6-11.8-12.3-8.9c-12.4,4.1-22.5,10.3-25.3,24.5c-1.2,5.9-0.2,11,4,15.2
		c7,7.1,16.2,6.2,24.4,5.7c7.5-0.5,15-3.9,22.1-6.8c20.7-8.4,37.7-21.6,50.7-39.7c5.3-7.3,6.7-15.8,3.1-23.6
		c-4.5-9.4-13.2-15.4-22.8-18.9c-13.4-4.9-27.6-5.4-41.7-3.9c-20.1,2.1-37.8,11.4-55.1,20.9c-18.3,10.1-35.3,22.2-50.5,36.8
		c-16.9,16.2-25.6,35.6-26.8,58.4c-0.4,8.8,1.2,17.7,2.4,26.5c1.1,7.5,4.8,13.7,11.4,17.9c12.8,8.1,27.4,10.1,41.9,11.9
		c4.5,0.6,9.3-0.9,14-1.5c6.5-0.8,13.1-1.3,19.6-2.6c22.1-4.2,42.9-12.4,61.8-24.2c20.2-12.7,39.5-27,56.1-44.4
		c11.7-12.1,21.2-25.7,24.5-42.6c1.2-6.3,0.8-12.9,1.9-19.2c3.4-20.3-1.3-40.1-3.3-60.1c-1.5-14.9-5.3-29.6-7.6-44.5
		c-1.1-7.6-1.1-15.3-1.6-23.8c-1.8,1.6-3.1,2.7-4.4,3.9c-15.7,13.1-31.5,26.2-47.2,39.2c-2.7,2.2-5.6,4.2-8.5,6.1
		c-13.2,8.5-25.8,18.7-43.1,16.3c-1.7-0.2-3.2-1.7-4.8-2.7c1.2-1.3,2.2-2.9,3.6-4c4.4-3.4,10.3-5.8,13.3-10.1
		c7.7-11,7.9-23.9,5.1-36.7c-3.5-16.1-8.8-31.8-8.8-48.8c-1.1,0.3-2,0.3-2.6,0.7c-7.5,4.5-14.9,9.1-22.4,13.6
		c-7.2,4.4-14.5,8.6-21.6,13.1c-1.2,0.8-2.5,2.9-2.4,4.3c0.5,6.2,1.7,12.4,2.2,18.7c0.4,5.6,0.3,11.3,0.5,16.9
		c0.2,4.1,0.2,4.1-5.2,15c0.3-4.8,0.6-9,0.8-13.1c-0.4-0.1-0.8-0.1-1.2-0.2c-2,7.7-4.1,15.3-6.1,23c-0.5-0.1-1-0.3-1.5-0.4
		c-0.3-1.7-0.5-3.5-0.8-5.2c-0.5-0.2-0.9-0.3-1.4-0.5c-0.5,1.2-1.5,2.5-1.5,3.7c-0.3,5.2,0.3,10.5-0.6,15.5
		c-0.9,4.8-3.4,9.2-5.1,13.8c-1.3,3.5-2.4,7-3.4,10c-0.9-1.3-1.7-2.6-2.7-4.1c5.9-10.4,7.8-15.9,6.3-20.7c-1.4,2.4-2.7,4.3-3.7,6.2
		c-3.7,6.8-7.3,13.7-11,20.5c-2.6,4.7-5.4,9.3-7.9,14.1c-1.2,2.3-2,4.1-5,5.3C267.8,262.7,265.5,266.6,262.6,269.4z M188.3,313.9
		c16.1-5.9,28.7-14.6,40.8-24.3c13.1-10.4,26.8-20.1,34.7-35.6c2.4-4.7,4.7-9.4,7.3-13.9c4.4-7.5,3.5-15.9,4.8-23.9
		c1-6.1,2.5-12.3,2.2-18.4c-0.4-11-2.1-22-3.1-33c-0.5-5.7-0.9-6.1-6.6-5.6c-8.3,0.7-16.7,1.6-25.1,1.5c-8.6-0.1-16.1-3.6-22-10.1
		c-1.5-1.6-3.1-4-3.1-6c0-5.8-2.6-12.1,3-17.3c2.1-1.9,2.6-5.5,3.9-8.4c0.2,10.2,3.8,18.5,13.2,21.9c7.5,2.8,15.8,4.4,23.7,4.3
		c8.6,0,8.6-1.1,7.5-10c-0.4-2.9-0.2-5.9-0.8-8.7c-3.9-19.8-8.2-39.6-11.9-59.4c-1.7-9.3-2.8-18.8-3.5-28.2
		c-0.2-3.5,1.6-7.1,2.9-12.1c-5.7,2-10.4,3.4-14.8,5.3c-17.2,7.2-32.7,17.2-45.9,30.6c-8.9,9-18.7,17.5-21.4,30.7
		c-2.3,11.3-5.3,22.8-5.5,34.2c-0.3,13.9,1.8,27.9,3.1,41.9c0.9,10,2,19.9,3.3,29.8c0.7,5.4,2.1,10.7,2.8,16.1
		c1.5,11.6,2.7,23.3,4,35c1.7,15.5,3.3,31.1,5,46.7C187.3,302.3,187.7,307.8,188.3,313.9z M673.7,294.7
		c15.4-19.7,32.8-36.9,54.4-50.5c-20.9-4.2-40.7-0.4-60.7,2.4C672.2,262.9,674.8,278.4,673.7,294.7z M340.4,239.5
		c-0.3-0.6-0.6-1.2-0.9-1.8c-2.3,0.8-4.5,1.8-6.8,2.3c-22.7,5-40.9,18.4-59.4,31.2c-5.2,3.6-8.9,9.2-13.2,13.9
		c-0.6,0.6-0.6,1.7-0.8,2.6c-0.5,1.8-0.8,3.7-1.4,5.4c-0.4,1.1-1.3,2.1-1.9,3.2c0.5,0.5,1,1,1.5,1.5
		C279.5,270.3,309.4,254.1,340.4,239.5z M287.8,418c0-0.6,0.1-1.2,0.1-1.8c-2.3-0.5-4.7-0.9-7-1.4c-11.5-2.5-23.8-3-33.3-11.5
		c-2.5-2.2-4.7-4.8-7.4-6.6c-9.6-6.2-14.6-15.5-17.6-26.1c-0.3-1-1.5-1.8-2.2-2.7c-0.5,1.1-1.6,2.2-1.5,3.2
		c0.6,7.3-0.3,15.2,7.9,19.4c0.5,0.3,0.8,1.1,1.3,1.5c7.3,5.8,14.2,12.2,22.1,17c10,6.1,21.7,7.5,33.3,8.5
		C284.9,417.8,286.3,417.9,287.8,418z M531,361.8c-4.3,4.1-8.1,7.6-11.2,10.5c1.8,5,3.2,9.1,4.6,13.2
		C535.8,381.3,537,377.6,531,361.8z M10.3,187.9c-5.1,9.1-3.1,54,7.5,56.7C8.6,226.2,11.7,206.9,10.3,187.9z M314.2,303.4
		c-8.9,7.1-15.3,16.9-9.1,26c1-4.9,1.4-9.5,2.9-13.7C309.5,311.4,312.1,307.5,314.2,303.4z M224.8,130.5c-2.6,6.3,2.1,10,5.1,13.9
		c3.4,4.5,4.6,4.5,8.5,2.5C231.1,143.6,226.6,138.3,224.8,130.5z M503.9,277.9c-2.3,7.7-4.4,14.8-6.7,22.2
		C503,296.1,507,283.6,503.9,277.9z M574.4,286.8c-0.5,0-1-0.1-1.5-0.1c-0.3,5.6-0.7,11.2-1.1,17.2
		C575.8,301.8,576.8,292.4,574.4,286.8z M447.8,359.2c5,0.5,12.1-6,12.6-11.2C455.8,352.1,451.8,355.7,447.8,359.2z M229.4,379.8
		c-0.3,0.4-0.7,0.7-1,1.1c3,3.8,6,7.7,9.1,11.5c0.6-0.4,1.2-0.8,1.7-1.3c-2.4-3.7-4.7-7.4-7.2-10.9
		C231.7,379.7,230.3,379.9,229.4,379.8z M20.6,163.9c0.8,0.3,1.6,0.7,2.4,1c1.5-3.2,2.9-6.4,4.4-9.7c-0.8-0.3-1.5-0.7-2.3-1
		C23.6,157.4,22.1,160.6,20.6,163.9z M667.9,281.9c-0.4,0-0.8,0-1.1,0c0,3.3,0,6.5,0,9.8c0.4,0,0.8,0,1.1,0
		C667.9,288.4,667.9,285.1,667.9,281.9z"/>
	<path class="st2" d="M488.2,464c-5-26.2-9.8-51.1-14.8-77.1c-9.1,4.6-17.3,9.9-29,8.9c5.7-3.4,10-6.1,14.5-8.7
		c14.2-8.1,14.9-9.7,11.2-25.5c-0.4-1.7-0.1-4.3,1-5.5c5.5-6,11.4-11.6,17.7-17.9c5.2,7.1-0.2,15.4,3.7,22.8
		c20.6-15.5,36.9-34.8,52.4-55c-1.3,2-2.8,3.9-3.8,6.1c-0.9,2-1.4,4.2-2.1,6.3c-0.3,1.1-0.5,2.4-1.1,3.2
		c-11.8,14.1-23.6,28.1-35.5,42.1c-1.7,2-3.6,3.9-5.8,5.2c-5.3,3.2-5.2,8.1-4.5,13.1c2,14.5,4.1,29,6.1,43.5
		c0.3,1.9,0.5,3.8-0.3,5.9c-1-3.9-2-7.7-3-11.6c-0.4,0-0.8,0-1.2,0c-0.4,1.4-0.7,2.8-1.1,4.3c-0.7-1.4-1.4-2.8-2.1-4.2
		c-0.4,0.1-0.9,0.1-1.3,0.2c0.5,8.9,1,17.9,1.5,26.6C484.8,451.3,490.3,457.5,488.2,464z"/>
	<path class="st2" d="M357.7,67.8c-0.2-5.3-0.4-10.7-0.8-16c-0.4-7.8-0.8-15.6-1.6-23.3c-0.1-1.3-1.7-3-3.1-3.5
		c-6.3-2.6-9.2-8.3-7.1-14.7c0.6-2,0.9-4.2,1.9-6.1c2.5-4.9,7.8-2.3,11.5-3.9c0.7-0.3,1.8-0.3,2.5,0c3.9,1.9,9.3,2.9,11.2,6.1
		c2.4,3.9,0.3,9.2-2.7,13.3c-1.9,2.7-3.6,5.6-5.4,8.4c-0.3-0.2-1.3-0.9-2.2-1.5c-0.9,13.9-1.8,27.6-2.6,41.2
		C358.8,67.7,358.2,67.7,357.7,67.8z"/>
	<path class="st2" d="M717.1,170.6c0-5.1,0-10.3,0-15.4c-0.5-0.1-0.9-0.2-1.4-0.3c-0.5,1.2-1.4,2.3-1.4,3.5
		c-0.3,9.6-0.4,19.2-0.8,28.8c-0.4,10.5-1.1,21-1.7,31.5c0,0.4-0.6,0.7-1.8,2.1c0-5.1,0-9.1,0-13.1c0-15.7,0.1-31.3-0.2-47
		c0-1.8-1.1-4.1-2.5-5.2c-6.1-4.8-2.7-21.7,4-23.4c6.5-1.7,11.8,2.5,10.8,9.8c-1.2,9.6-2.9,19.1-4.4,28.6
		C717.6,170.6,717.3,170.6,717.1,170.6z"/>
	<path class="st2" d="M684.7,183.3c-0.5-0.6-1.3-1.5-2.1-2.4c-0.7,1.2-1.8,2.3-1.9,3.5c-0.4,6.3-0.4,12.6-0.7,18.9
		c-0.1,1.6-0.4,3.1-1.5,4.5c-0.4-7.8-0.8-15.6-1.4-23.4c-0.2-2.6-1.4-5.1-1.6-7.7c-0.4-3.5-0.9-7.2-0.4-10.6c0.6-4,4-4.8,7.7-4.4
		c3.5,0.4,6.3,1.8,6.4,5.6c0.1,2.9-0.5,5.9-1.3,8.8C687.1,178.8,685.6,181.2,684.7,183.3z"/>
	<path class="st2" d="M415.3,27.9c-1.7-0.9-4-1.4-5.1-2.8c-1.8-2.3-4.6-5.9-3.9-7.7c1.3-3,4.6-6.1,7.8-7.2c2.1-0.7,6.4,1.5,7.8,3.6
		c2.8,4.5-1.6,7.8-3.8,11.3C417.5,26.2,416.3,26.9,415.3,27.9z"/>
	<path class="st2" d="M78.6,398.6c-0.1,6.8-3.4,10.9-7.1,10.7c-2.9-0.1-6.5-4.5-6.4-7.8c0.1-3.8,4.6-8,8.6-7
		C75.9,395,77.6,397.7,78.6,398.6z"/>
	<path class="st2" d="M609,461.1c-0.3-3.6-0.6-7.2-0.9-10.8c-0.2-3.4,0-6.8-3.2-9.4c-0.8-0.7-0.3-4.2,0.7-5.6c2-2.7,5.4-2.8,8-1
		c1.1,0.7,1.9,3.2,1.6,4.6c-0.9,3.7-5.2,5.7-4.6,10.5c0.5,3.8-0.5,7.8-0.8,11.7C609.5,461.2,609.2,461.1,609,461.1z"/>
	<path class="st2" d="M676.5,82.7c6.2,2.3,8.1,5.6,5.3,10.5c-0.9,1.6-3.8,3.3-5.3,2.9C673.1,95.4,673.1,88.1,676.5,82.7z"/>
	<path class="st2" d="M528.1,244.5c1-4.5,3.9-7.1,8.3-6.5c1.3,0.2,3.5,3.4,3.3,3.6c-2.3,2.8-5,5.3-7.6,7.8
		C530.7,247.8,529.4,246.2,528.1,244.5z"/>
	<path class="st2" d="M94,70.2c-2.7,1.7-4.8,3-6.9,4.3c-0.7-1.9-2.5-4.5-1.8-5.7C87.3,65.2,90.1,66.6,94,70.2z"/>
	<path class="st2" d="M445,413.3c-1.5,1.5-2.9,3.2-4.7,4.2c-0.4,0.2-3.4-2.9-3.2-3.1c1.3-1.9,2.9-3.9,4.9-5c0.9-0.5,2.8,1,4.3,1.6
		C445.8,411.7,445.4,412.5,445,413.3z"/>
	<path class="st2" d="M701.3,194.3c-1.8-0.5-3.6-1-5.5-1.6c0.8-1.8,1.7-3.6,2.5-5.4c1.5,1.5,2.9,3,4.4,4.5
		C702.2,192.6,701.8,193.4,701.3,194.3z"/>
	<path class="st2" d="M458.2,8.1c1.7,1.9,3.2,3.3,4.3,5c0.2,0.3-1.5,2.6-1.9,2.5c-2-0.5-3.8-1.5-6.2-2.6
		C455.8,11.2,456.8,10,458.2,8.1z"/>
	<path class="st2" d="M186.7,388.1c-0.3,7.5-0.7,15-1,22.5C184.7,403,183.1,395.4,186.7,388.1C186.8,388,186.7,388.1,186.7,388.1z"
		/>
	<path class="st2" d="M653.9,359.1c1.6-1.4,2.6-2.4,3.6-3.3c0.8,1.2,2.2,2.4,2.1,3.5c-0.1,1.1-1.8,2-2.8,3
		C656.1,361.5,655.3,360.6,653.9,359.1z"/>
	<path class="st2" d="M119.8,413.1c-1.2-2.2-2.4-3.5-2.2-4.3c0.4-1.3,1.9-2.2,3-3.3c0.8,1,2.3,2.1,2.2,3.1
		C122.7,409.9,121.3,411,119.8,413.1z"/>
	<path class="st2" d="M517.7,271.6c0,4.9,0,9.8,0,14.7c-0.6,0-1.2,0-1.9-0.1c0.4-4.9,0.9-9.8,1.3-14.6
		C517.4,271.6,517.5,271.6,517.7,271.6z"/>
	<path class="st2" d="M683.3,134.4c-1.2,0.5-2.4,1.6-3.4,1.5c-0.8-0.1-2.2-1.8-2.1-2.5c0.3-1.2,1.5-3,2.5-3.1c1.5-0.1,3,1,4.5,1.6
		C684.3,132.7,683.8,133.5,683.3,134.4z"/>
	<path class="st2" d="M201.2,263c-1.2-12.4-2.4-24.9-3.6-37.3c0-0.5-0.3-1-0.2-1.5c2.1-7.6-1.5-12.3-7.3-16.6
		c-2.8-2-3.2-5.2-0.5-8.2c2.9-3.3,5.1-7.4,8.4-10.1c4.7-3.7,10.7-3.3,13.3-0.4c2.9,3.2,3,10.7-0.6,14.8c-2.4,2.8-5.9,4.7-8.7,7.2
		c-1.2,1.1-2.6,2.8-2.6,4.1c0.4,9.5,1.1,19,1.7,28.5c0.4,6.5,0.9,13,1.3,19.5C202,263,201.6,263,201.2,263z"/>
	<path class="st2" d="M220.4,225.9c-0.4-0.5-2.1-1.6-2.3-2.9c-0.4-3,4.2-7.7,6.9-7.2c1.2,0.2,2.7,1.9,2.9,3.1
		C228.4,222.6,225.2,225.9,220.4,225.9z"/>
</g>
</svg>
