<?xml version="1.0" encoding="utf-8"?>
<!-- Generator: Adobe Illustrator 19.2.1, SVG Export Plug-In . SVG Version: 6.00 Build 0)  -->
<svg version="1.1" id="Layer_1" xmlns="http://www.w3.org/2000/svg" xmlns:xlink="http://www.w3.org/1999/xlink" x="0px" y="0px"
	 viewBox="0 0 864 864" style="enable-background:new 0 0 864 864;" xml:space="preserve">
<style type="text/css">
	.st0{fill:none;stroke:#000000;stroke-miterlimit:10;}
</style>
<g>
	<path class="st0" d="M703.3,454.9c-5-9.9-10.2-19.7-15.2-29.5c-1.2-2.4-0.8-4.1,1.3-6.2c3.8-3.9,7.5-8.1,10.3-12.7
		c18.9-31.1,28.7-64.8,28-94.2c0.1-37.6-5.8-66.9-16.8-95.2c-15.3-39.2-37.6-74-64.2-106.4c-21.3-26-47.4-45.2-78.7-57.6
		c-30.3-12-61.6-20.2-93.4-26.8c-26.6-5.5-53.3-5.7-80-0.7c-30.4,5.8-60.2,13.9-89.2,24.6c-27.1,10-52.2,23.5-71.9,44.9
		c-13.5,14.6-25.9,30.4-37.5,46.5c-25.8,35.5-44.4,74.5-53,117.8c-7.7,38.6-7.2,76.8,7.2,114.1c5.6,14.5,10.8,29.8,22.1,40.8
		c7.4,7.2,5.9,12.9,2.2,20c-0.4,0.7-0.7,1.5-1.1,2.3c-5.3,9.9-10.9,19.6-15.9,29.7c-7.5,15.2-7.6,30,4,43.6
		c9.1,10.8,14.4,23.3,17.5,36.9c0.6,2.5,1.4,4.9,2.2,7.2c6.1,18.1,18.2,26.5,37.3,25.7c3.2-0.1,5.2,0.6,7,3.3
		c24.9,35.8,30.6,74,15,115.1c-3.3,8.6-6.6,17.4-8.4,26.4c-3,15.3,2.2,27.9,15.1,37.1c9.3,6.6,19.8,10.7,30.6,13.7
		c18.4,5.3,35.6,12.9,50.9,24.6c10.9,8.4,21.9,16.7,32.5,25.5c18.7,15.5,40.2,23.4,64.2,24.4c23.7,1,46.7-2.4,67.1-15.6
		c10.6-6.9,20.3-15.1,30.2-23c20.4-16.2,42.2-29.8,67.6-36.7c6.7-1.8,13.3-4.6,19.7-7.5c11.8-5.3,20.4-13.8,24.2-26.5
		c2.8-9.5,0.8-18.7-2.3-27.7c-3.1-8.9-7.4-17.4-9.8-26.4c-9.9-37.5-4-72.4,19.2-103.9c1.7-2.3,3.4-3.1,6.3-2.8
		c16.2,1.6,29.3-6.2,35.9-21c1.4-3.2,2.6-6.6,3.4-10c3.3-14.7,8.8-28.3,18.5-40.2c8.3-10.2,10.9-22.3,6.8-34.9
		C709.8,467.1,706.4,461,703.3,454.9z M708.8,312.2c4.5-15.9,3.6-32.6,7.8-48.9c0.7,3.1,1.5,6.1,2.1,9.2c2.7,14.3,2.6,28.8,1.5,43.3
		c-0.3,4-2.4,8.1-4.5,11.6c-3.5,6-7.6,11.6-11.5,17.3c-0.3-0.2-0.7-0.3-1-0.5c1.4-7.9-1.9-14.5-5.2-21.2c-4.7-9.3-8.9-18.8-8.9-29.6
		c0-6.9,1.7-13.3,4.7-19.5c0.5-0.9,1.2-2,2.1-2.4c4.2-1.9,8.4-3.7,13.4-5.8c-0.5,15.7-1,31-1.5,46.3
		C708.1,312.1,708.5,312.1,708.8,312.2z M697.1,207.7c0.9,0.6,2.2,1.1,2.6,1.9c6.3,13.5,9.6,27.6,8.2,42.5c-0.6,6-2.5,11.3-8.6,13.9
		c-5.7,2.4-10.3,1.1-13.3-4.3c-1.4-2.5-2.2-5.4-3.4-8.1c-0.5-1.1-1.2-2.1-1.7-2.9c-3,3.4-5.3,6.9-8.4,9.2
		c-7.1,5.2-14.4,2.8-16.6-5.8c-1-3.7-0.8-8.2,0.3-11.9c3.3-11.4,7.4-22.7,11-34c0.8-2.5,2.3-2.7,4.2-2c2,0.8,5.5-0.4,5.2,3.9
		c-0.5,7.5-0.7,15.1-1.1,22.7c0.6,0.1,1.2,0.1,1.8,0.2c1.1-7,2.1-14,3.4-20.9c0.3-1.4,1.4-2.7,2.1-4.1c0.4,0.2,0.9,0.4,1.3,0.6
		c1.6,10.9,3.3,21.8,4.9,32.6c0.5,0,1-0.1,1.5-0.1c-0.6-10.7-1.1-21.4-1.7-32.2c0.3-0.3,0.5-0.5,0.8-0.8c0.9,1.1,2.2,2.1,2.7,3.4
		c2.3,5.9,4.3,11.9,6.4,17.8c0.5,1.4,1.3,2.7,2.9,3.9c0-2,0.4-4-0.1-5.9c-1.4-5.6-3.3-11-4.8-16.6
		C696.5,209.9,697,208.8,697.1,207.7z M609.3,228.8c-5.3,0.9-9.9,0.1-12.8-4.8c-3.1-5.3-2.4-11.7,1.7-16.5c6.5-7.6,14.8-13,24-16.8
		c9-3.8,18.4-6.7,27.6-9.9c1.8,3.3,0.5,4-1.6,5.1c-5.7,2.8-11.2,6-16.8,9.1c0.2,0.5,0.5,1.1,0.7,1.6c6.4-2.2,12.8-4.5,19.3-6.7
		c0.3,0.3,0.7,0.6,1,1c-0.8,1-1.5,2.3-2.5,3.1c-5,3.8-10.2,7.4-15.3,11.2c-1.1,0.8-2.1,1.8-3.1,2.7c0.1,0.3,0.3,0.5,0.4,0.8
		c1.9-0.8,3.8-1.4,5.5-2.3c5.3-2.6,10.4-5.5,15.7-8.1c1.1-0.5,2.6-0.3,4.8-0.6c-5.5,7.4-10.1,13.7-14.8,19.9c0.4,0.3,0.7,0.7,1.1,1
		c6.6-4.3,11.7-10.2,17.9-17c0.2,2.6,0.7,4.3,0.3,5.8c-2.7,10.8-6.7,21.1-13.9,29.9c-4.5,5.5-9.8,9.6-16.9,11.1
		c-10.9,2.4-18.4-4.6-16.6-15.6c0.2-1.4,0.5-2.7,0.9-4.7C613.5,228.3,611.4,228.4,609.3,228.8z M631.8,255.5c0.1-0.9,1-2.2,1.9-2.6
		c4.1-1.8,8.2-3.3,13.2-5.3c-2.9,6.1-5.6,12-8.3,17.8c0.3,0.3,0.6,0.5,0.9,0.8c3.6-4.1,7.2-8.3,10.7-12.4c1.9,3.2,3.9,6.7,6.1,10.5
		c-5.7,10.2-15.8,13.4-26.8,15.9C630.3,271.9,631,263.7,631.8,255.5z M694,197.7c-12.7,6.4-26.1,3.1-32.8-7.5
		c-5.1-8-5.8-22.1,10.3-33.4C679,170.4,686.4,183.9,694,197.7z M636.9,110.8c9.4,12.2,18.7,24.6,27.9,37c0.9,1.3,3.2,2.9,0.5,4.4
		c-0.6,0.3-2.7-1.2-3.4-2.3c-4-6.7-8.1-13.4-15.4-17.6c4.3,7.6,8.5,15.2,12.8,22.8c-9.6-7.8-18.4-16.6-29.1-22.8
		c-0.3,0.3-0.5,0.5-0.8,0.8c2.7,2.9,5.3,5.8,8.1,8.6c5.4,5.3,10.8,10.7,16.3,15.8c1.8,1.7,2.2,3.1-0.3,5.4
		c-6.6-3.6-13.4-7.3-20.3-11c-0.3,0.6-0.7,1.1-1,1.7c6.5,4.8,12.9,9.5,19.6,14.4c-0.6,2.6-1.2,5.7-2,9.3
		c-19.2-0.7-36.4-5.7-47.4-22.8c-2.6-4.1-4-9.8-3.7-14.7c0.5-8.7,7.6-14.2,16.7-14.6c1.8-0.1,3.5,0,4.1,0c0.9-5,0.9-9.5,2.7-13.1
		C625.1,106.1,632.9,105.7,636.9,110.8z M199.9,149.2c2.2-3.4,4.5-6.8,7-10c7.2-9.4,14.3-18.8,21.7-28c4.7-5.9,12.5-5,15.4,2.1
		c1.4,3.4,1.1,7.5,1.7,11.7c1.5,0.1,4,0.1,6.5,0.5c11,1.5,17.4,11.2,14.3,21.8c-2.2,7.5-6.3,13.9-12.9,18.2
		c-11.3,7.5-23.5,12.5-37.8,11.5c-0.7-3-1.4-6.1-2-9.1c6.6-4.8,13.1-9.6,19.7-14.4c-0.4-0.6-0.7-1.1-1.1-1.7
		c-6.7,3.7-13.4,7.4-20.2,11.1c-2.8-2.3-2.1-3.8-0.3-5.6c7.5-7.2,14.8-14.6,22.2-21.9c0.8-0.8,1.4-1.6,1.8-2.8
		c-11.3,5.6-19.9,14.6-29.6,22.5c4.3-7.6,8.5-15.3,12.8-22.9c-0.4-0.3-0.7-0.6-1.1-0.9c-3.7,4.4-7.5,8.7-11,13.3
		c-1.5,2-2.5,4.4-4,6.5c-0.5,0.8-1.8,0.9-2.8,1.4C200,151.3,199.4,149.9,199.9,149.2z M250.7,234.5c0.5,10-6.4,16.3-16.1,13.8
		c-4.6-1.1-9.5-3.4-12.9-6.5c-10.4-9.3-15.4-21.8-18.6-35.2c-0.3-1.2,0.2-2.7,0.4-4.4c6.1,5.8,11.7,11.3,17.4,16.7
		c0.4-0.3,0.8-0.7,1.2-1c-1.1-1.9-2.1-4-3.5-5.8c-2.6-3.6-5.6-7.1-8.2-10.7c-0.7-1-0.8-2.5-1.2-3.8c1.2,0.2,2.5,0.2,3.6,0.8
		c6.9,3.4,13.6,7,20.5,10.5c0.3-0.4,0.5-0.7,0.8-1.1c-2-1.7-3.9-3.5-6-5.1c-4.1-3-8.3-5.8-12.3-8.8c-1-0.8-1.7-2-2.6-3
		c0.3-0.4,0.5-0.8,0.8-1.1c6.5,2.3,12.9,4.6,19.4,6.8c-4.4-5.1-9.9-8.2-15.9-10.9c-1.3-0.6-2.2-2-3.3-3c0.3-0.5,0.6-1.1,1-1.6
		c5.7,1.7,11.4,3.2,17,5.1c13.4,4.6,26,10.7,35.5,21.8c2.8,3.2,3.7,6.8,3.1,10.9c-0.9,6.7-5.9,10.8-12.6,10.1
		c-2.6-0.3-5.2-0.8-8.5-1.3C250.1,230.5,250.6,232.5,250.7,234.5z M218.4,247.5c5.1,2.1,9.4,3.7,13.6,5.5c0.9,0.4,1.7,1.8,1.8,2.7
		c0.8,8.1,1.5,16.1,2.3,24.5c-11.3-2.3-21-6-26.8-15.9c1.9-3.4,4-6.9,6.1-10.5c3.4,3.9,7.2,8.3,11,12.7c0.3-0.2,0.6-0.5,0.9-0.7
		C224.2,259.8,221.4,253.9,218.4,247.5z M193.9,157c11.6,6.1,17,21,11.7,31.2c-6.2,12-20.8,16.4-34,9.5
		C179.1,183.9,186.5,170.5,193.9,157z M158.2,236.1c1.4-8.9,4.8-17.5,7.5-26.2c0.3-1,1.8-1.6,2.7-2.3c0.1,1.2,0.6,2.5,0.3,3.6
		c-1.4,5.1-3.1,10.2-4.4,15.3c-0.6,2.2-0.4,4.5-0.5,6.8c0.4,0.1,0.9,0.2,1.3,0.3c1.2-3,2.6-5.9,3.7-9c1.7-4.6,3.2-9.3,4.9-13.9
		c0.4-1.1,1.6-1.8,3.1-3.5c-0.7,12.7-1.3,24-1.9,35.3c0.5,0.1,1,0.1,1.5,0.2c1.7-11.5,3.4-23,5.1-34.4c0.5-0.2,0.9-0.3,1.4-0.5
		c0.7,1.3,1.8,2.5,2.1,3.8c1.2,6.2,2.2,12.4,3.3,18.6c0.2,0.9,0.6,1.7,0.9,2.6c0.4,0,0.7-0.1,1.1-0.1c-0.4-7.4-0.6-14.9-1.1-22.3
		c-0.1-2.3,0.3-3.5,2.9-4.1c5.6-1.2,5.5-1.2,7.3,4.3c3.1,9.9,6.4,19.7,9.6,29.5c1.7,5.3,2.8,10.6,0.1,15.9c-3.4,6.5-9.1,8.3-15,4.2
		c-3.4-2.4-5.9-6-9.3-9.4c0,0.1-0.9,0.7-1.2,1.5c-0.9,2.1-1.4,4.3-2.3,6.3c-2,4.4-4.6,8.2-10.1,8.2c-5.2,0.1-11-3.6-11.9-9
		C158,251,157.1,243.3,158.2,236.1z M148.5,265.7c0.2-0.9,0.6-1.8,1.3-3.6c3.5,17.3,2.3,34.3,8.1,50.2c-0.4-15.4-0.9-30.7-1.3-46.4
		c4.8,2.1,8.9,3.7,12.7,5.6c1.2,0.6,2.2,2,2.9,3.3c7,14,4.9,27.8-1.1,41.4c-1.9,4.2-4.3,8.3-5.8,12.6c-1.7,4.9-2.6,10.1-3.7,15
		c-7.9-9.4-16.2-19.4-16.5-33.7C144.6,295.1,144.9,280.3,148.5,265.7z M203.1,568.2c6.4-0.4,14,0,21.3-1.4
		c19.1-3.7,34.7-22.2,34.8-40.2c0-6.2-0.6-7.8-6.1-15.9c2.2-2.1,4.6-1.4,6.8-0.3c4.8,2.6,7.6,6.9,8.3,12c0.5,4,0.8,8.4-0.4,12.1
		c-5.8,18-16.6,31.8-35.2,37.8C222.7,575.6,209.7,573.2,203.1,568.2z M246.6,514.3c-4.7-3-6.6-7.9-4.8-14c2.7-9,9.1-14.3,17.8-16.8
		c5.3-1.5,10.3-0.2,14.4,3.6c6.1,5.6,10.3,19.8,6.7,29.1c-0.9-4-1.5-8.6-3.2-12.9c-2.6-6.9-7.7-9.8-15.2-9.4
		c-7.2,0.4-13.3,3.4-15.9,10.4C245.4,507.4,246.5,511.4,246.6,514.3z M205.2,517.9c7.8,14.3,20.8,9.7,32.9,7.1
		c0,0.2,0.2,0.6,0.1,0.7c-6.7,7.6-21,11.1-31.1,7.6c-9-3.2-15.1-11.9-15.9-22.3c-1-13.5,14.2-36,31.5-35c9.2,0.5,15.5,5.5,21,12.1
		c-16-7.4-27.4-6.5-36.4,2.9C200.2,498.5,199.8,508.1,205.2,517.9z M622.3,593.9c-8.9,16.5-11.8,34.3-13.3,52.7
		c-1.9,22.9,3.9,44,12.6,64.7c5.2,12.2,6.9,24.5-1.4,36.1c-5.4,7.6-13.4,11.8-21.9,15.1c-10.5,4.1-21.6,6.8-31.4,12
		c-14.3,7.5-28.4,15.6-41.2,25.2c-19.7,14.8-39.5,11.5-56.4-2.9c-11.8-10-14.5-22.6-8.5-36.8c3.7-8.7,13.3-15.2,22-14.8
		c16.7,0.7,29.4,20.8,21.8,35.4c-2,3.8-6,6.8-9.6,9.6c-1.4,1.1-4,1.1-6.1,1.2c-3.8,0.1-5.4-2.9-6.5-5.7c-1.9-5.4-2.1-10.8,1.9-15.5
		c2.3-2.7,5-2.6,8-1.3c0.7,0.3,1.6,0.4,2.7,0.6c-0.6-8.1-6.7-12.3-14.3-10.5c-10.8,2.6-16.5,12.8-13,23.3
		c4.6,13.8,16.9,23.3,29.5,21.9c10.8-1.2,17.8-8.5,23.2-17.2c5.1-8.2,6.7-17.2,4.6-26.7c-0.1-0.7-0.1-1.4-0.2-1.9
		c4.8,2.9,9.2,6.4,14.2,8.7c19.3,8.9,40.6-5.3,39.9-26.3c-0.1-1.9-0.4-3.9-1-5.8c-1.9-6.4,0.6-11.3,5.1-15.4
		c4.5-4.1,10-5.4,15.6-2.6c5.6,2.8,9.1,7.5,8.4,13.9c-0.4,3.1-2.3,6.9-4.8,8.6c-3,2.1-7.2,1-10-1.8c-1.1-1.1-1.4-3-2-4.6
		c0.3-0.2,0.7-0.4,1-0.6c0.5,0.2,1,0.6,1.5,0.6c2.1,0.1,4.4,0.7,6.1-0.1c0.9-0.4,1.8-3.8,1.1-4.6c-1.4-1.8-3.7-3.5-5.8-3.8
		c-3.3-0.5-5.6,1.9-7,5c-1.8,3.7-1.3,7.2,1.2,10.3c3.7,4.4,8.4,6.5,14.2,5.3c5.3-1,7.4-5.1,8.7-9.8c2.9-10.5-3.4-21.5-13.9-24.4
		c-0.9-0.2-1.8-0.5-2.9-0.7c2.7-3.8,5.3-7.2,7.6-10.9c10-15.6,8.8-31.1-2.9-45.5c-7-8.6-12.9-17.9-12.6-29.6c0-2,0.3-3.9,0.7-5.8
		c0.6-3.1,2-5.4,5.8-4.3c3.2,1,5.6,5.1,4.7,8c-0.3,0.9-0.9,1.7-1.4,2.5c0.3,0.2,0.5,0.5,0.8,0.7c0.8-1.1,2.1-2,2.5-3.2
		c0.9-3.5-3.2-9.7-6.8-10.6c-4-1-7.6,1.7-8.8,6.4c-2,8.1-0.7,16,2.8,23.4c2.8,5.9,6.4,11.4,9.8,17.3c-0.1,0-0.4,0.3-0.7,0.3
		c-10.8-2-16.2,9.5-13.6,17.3c1.1,3.4,3.2,6.1,7,6.5c1.3,0.2,3.5-0.1,3.8-0.8c0.9-1.9,1-4.2,1.4-6.4c-1.5-0.2-3.1-0.3-5.5-0.6
		c-3.2-3.2-3.7-8-0.2-10.9c3.4-2.8,9.6-1.8,12.4,2c3.2,4.3,3.7,9.4,3.5,14.5c-0.3,10.8-4.7,19.8-11.9,27.7c-0.9,1-2.1,2-3.4,2.3
		c-8.4,2.3-13.6,7.4-15,16.2c-14.9-13.8-32.6-14.6-35.9-1.4c1.1,0.1,2.1,0.3,3.2,0.3c8.8,0.2,13.1,4.8,13,14
		c-0.2,9-5.3,14.7-13.6,13.9c-9.5-0.9-18.5-3.6-25.8-10.6c-9.8-9.5-22-11-34.9-9.6c-30.8,3.4-48.3,36.6-33,62.9
		c8.2,14,21.2,21.7,36.2,26.5c2.1,0.7,4.2,1.2,6.5,1.9c-21.7,19.1-87.2,21.1-114.1,0.3c4.6-1.6,9.3-3,13.7-4.8
		c13-5.4,23.6-13.5,30.1-26.3c9.2-18,5.1-37.2-10.5-50.1c-17.6-14.4-42.3-15.7-56.9-2c-5.7,5.4-12.3,8.2-19.3,10.4
		c-3.5,1.1-7.6,1.4-11.1,0.7c-7.4-1.3-11.2-6.9-10.8-14.3c0.4-7,5-11.8,12.3-12.8c1.3-0.2,2.7-0.2,4.3-0.4c-1.3-5.4-4.8-7.8-9.4-8.8
		c-8.4-1.8-15.9,0.3-22.2,6.1c-1.3,1.2-2.4,2.7-4,4.5c-2.1-9.4-7.5-14.4-16-16.9c-2.3-0.7-4.3-3.6-5.9-5.8
		c-6.3-8.5-9.9-18.1-8.7-28.8c0.4-3.6,2.4-7.5,4.6-10.5c2.9-4,9-3.6,12.2-0.1c3.5,4,3.1,7.9-0.6,11c-2.2-0.2-3.9-0.8-5.4-0.4
		c-0.7,0.2-1.7,2.5-1.4,3c1.1,1.4,2.6,2.9,4.3,3.5c3.3,1.1,6-0.1,7.5-3.5c4.8-10.5-0.5-18.7-13.9-20.5c1.5-2.4,2.9-4.6,4.2-6.8
		c4.6-7.4,9.4-14.9,10-23.8c0.2-4.2-0.6-8.6-2-12.6c-1.3-3.7-6.1-4.7-9.3-2.8c-3.7,2.2-6.4,8.4-4.7,11.2c0.5,0.8,1.5,1.3,2.8,1.8
		c-3-3.7-1.8-6.6,1-9.3c3.6-3.6,6.3-3.1,7.5,1.8c2,7.7,1.8,15.3-2.2,22.5c-1.9,3.3-3.7,6.7-6.1,9.6c-14.9,18.5-15.4,40.8,0.4,59.2
		c0.2,0.2,0.2,0.5,0.4,1.1c-10.7,2.3-15.4,9.8-16.7,19.9c-1.1,8.2,4.5,15,12.1,15.2c8,0.2,14.2-5.8,13.9-13.1
		c-0.2-4.4-4.3-7.8-8.4-6.4c-1.8,0.6-4.2,3.1-4.2,4.7c0,1.6,2.6,3.3,4.4,4.5c0.8,0.5,2.3-0.1,3.6-0.3c-1.6,4.2-5.3,6.3-10.1,5.6
		c-4-0.6-6.2-3.2-6.8-7c-1.1-6.4,3.6-14.6,9.5-16.7c5.9-2.1,14.3,0.8,17.7,6.5c2.3,3.9,3.5,7.8,2,12.7c-3,10.2,0.5,19.2,7.8,26.5
		c8,8,17.9,9.7,28,6c6.6-2.4,12.4-6.7,18.1-9.9c-0.2,3.2-0.6,7.6-0.5,11.9c0.1,9.7,3.7,18.2,10,25.3c13.2,15,36.6,10.7,45-8.1
		c3.3-7.5,4-14.9-1-22c-3.7-5.3-9-6.9-15.1-6.4c-4.5,0.4-7.3,3.3-9,7.3c-0.4,0.8-0.4,1.8-0.6,3c0.8,0.1,1.4,0.4,1.8,0.2
		c3.2-1.3,6.6-2.6,9.3,0.7c2.9,3.5,4.3,7.6,3.2,12.2c-1.7,6.9-7.7,9.8-14.4,7.1c-8.4-3.4-13.4-14-11-23.6
		c3.9-15.5,24.9-27.7,40.9-15.6c1.9,1.5,4,3.5,4.7,5.7c2.1,6.3,4.7,12.8,4.9,19.3c0.3,14.1-10.1,21.6-20.5,28.2
		c-14.6,9.3-32.9,9.5-47.4-2.3c-20.2-16.4-42.7-28.9-67.9-36.3c-5.1-1.5-10-3.8-14.8-6.1c-16.7-8-23.2-22.8-17.7-40.5
		c1.2-4,2.5-8.1,4.4-11.8c10.3-19.4,12-40.2,10.7-61.5c-1.1-18.1-4.5-35.7-13.6-51.7c-0.3-0.5-0.4-1-0.4-1.6c0-0.2,0.3-0.5,0.9-1.4
		c8.7,10.3,13.5,22.2,17.1,34.7c1.6-17.4-7.3-31.3-15.6-45.5c9.4,7.6,12.4,19.1,18.6,28.7c0.9-13-7.1-22.5-12.3-33.8
		c1.4,0.9,3.4,1.4,4.1,2.6c4.3,7.7,8.3,15.6,12.4,23.4c0.5,1,1,2.2,1.8,3.1c0.5-8.4-3.5-15.5-6.1-23.1c7.8,6.4,7.9,17,14.5,24.3
		c-1-4.4-2-8.8-3-13c4.8,3.3,10.8,12,11.5,19.2c1.3,13.7,1.9,27.4,2.6,41.1c0.7,12.3,0.2,24.8,4.2,36.7c0.3,0.8,0.1,1.9-0.1,2.9
		c-1.4,5.9-0.4,11.4,4.4,15.3c4.7,3.7,10.1,3.8,15.3,0.6c6.9,6.5,10.6,6.9,18.2,1.9c1.6-1.1,2.7-1.4,4.2,0.4
		c5.8,6.6,14.5,7,20.5,1.8c4.6,2.3,8.6,5.2,13.1,6.5c4.8,1.3,9.4-0.5,12.9-5.1c2.8,4.6,7,6.7,12.2,7c5.2,0.2,9.6-1.7,12.5-4.7
		c4.6,2.3,8.6,5.2,13,6.2c4.4,1,9.7,1.8,13-3.1c5.3,5.3,16.1,5.2,26.4-3.2c9.5,7.2,18.5,6.6,24.7-2c3.4,4,7.9,6.3,12.9,5
		c4.5-1.2,8.6-4.1,13.3-6.4c6.7,5.5,13.7,4.8,22.2-3.2c11.1,5.9,14.3,5.8,20-0.2c3.6,0.4,7,1.5,10.2,1.1c7.6-1,12.2-8.8,10.5-16.9
		c-0.2-1.2-0.7-2.6-0.3-3.6c4-11,2.8-22.5,3-33.8c0.2-17-0.2-34.1,5.4-50.5c1.9-5.6,5.7-9.7,10.3-14.6c-1.4,5.7-2.5,10.4-3.6,15.1
		c6.7-7.4,6.6-18.3,14.6-24.8c-2.8,7.4-6.7,14.4-5.6,22.8c2.1-4.6,4.2-9.4,6.5-13.9c2-4,4.2-7.9,6.7-11.6c0.9-1.3,2.8-1.9,4.7-2.4
		c-5.4,10.8-11.5,21-12.5,33.1c6.2-9.4,9.2-20.7,18.8-28.2c-0.5,1.1-0.8,2.2-1.5,3.2c-7,10-12.1,20.9-14.6,32.9
		c-0.6,2.8-0.4,5.7,0.1,8.8c4.1-12.3,8.6-24.2,17.2-33.9c0.4,0.2,0.9,0.4,1.3,0.5C622.9,592,622.8,593,622.3,593.9z M554.2,725.4
		c10.9,2.6,17.4,17.6,11.7,27.1c-6.1,10.1-13.3,13-24.6,9.5c-4.4-1.4-8.4-3.8-12.6-5.8c0.1-0.3,0.2-0.7,0.4-1
		c10,2.9,19.8,4.9,26.9-5.4C560.7,743,559.9,734.1,554.2,725.4z M309.6,748.4c6,10.6,15.6,10.4,25.9,7.4c-3.8,5.8-14.1,9.7-20.6,7.9
		c-9.3-2.4-15.9-9.7-16.5-18c-0.6-9,4.7-17,14.8-21.2C306.8,732.3,304.9,740.1,309.6,748.4z M305.7,668.7c2.3-0.2,3.7,0.2,3.8,3
		c0.2,4.8,0.6,9.5,1.2,14.3c0.4,3.1-1.1,5.2-3.6,5.9c-2.1,0.6-5.5,0.6-6.8-0.7c-2.5-2.5-4.5-5.8-5.4-9.2c-1.1-3.9-0.9-8.2-1.3-12.4
		C298.2,669.3,301.9,669.1,305.7,668.7z M293.5,664.3c0.2-8.4-0.7-17,4.1-24.6c1.4-2.1,4.1-3.7,6.5-4.6c2.6-0.9,6.2,1.9,6,4.4
		c-0.5,7.9-1.3,15.8-2,24.1C303.6,663.8,298.9,664.1,293.5,664.3z M296.8,694.1c5.7,3.5,11,4.2,15.5-2.1c2.4,3.8,3.9,8.5,9.1,9.1
		c4.9,0.6,8.1-2.4,11.3-5.9c3.1,4.6,5.7,9.7,12.4,9.2c6.2-0.5,9.7-4.4,12.1-9.8c7.4,12,15,12.9,26.3,3.4c3,4.1,5.8,8.6,12,8.2
		c5.6-0.3,9.9-2.7,12.5-6.6c4,2.5,7.7,5.5,11.8,7.3c4.4,1.9,9.1,2,12.6-2.4c9.4,7.2,14.7,5.9,24.4-5.7c3.2,4.1,7.2,6.9,12.6,7.3
		c5.5,0.4,9.5-1.8,11.9-6.8c8,9.2,21.6,8.2,27.1-4.5c2.9,5.2,6.7,9,12.7,9.4c6.3,0.3,9.2-4.6,12.3-8.9c9,8.3,13,7.9,19.2-1.4
		c2.9,1,5.6,2.7,8.3,2.8s5.5-1.4,8.2-2.3c0.8,3.9-0.8,8-4.2,9.9c-4,2.3-7.9,1.2-13.3-3.9c-0.9,1.3-1.7,2.5-2.6,3.7
		c-3.7,4.9-8.3,5.8-13.1,2c-3.4-2.7-5.3-2.4-8.2,0.8c-5.5,6-11.3,5.2-15.9-1.4c-0.4-0.6-0.8-1.1-1.6-2.1
		c-6.9,10.5-15.4,13.9-25.6,6.1c-4.3,2.4-7.8,5-11.6,6.3c-4.6,1.5-9-0.4-12-4.2c-2.1-2.7-3.4-2-5.8-0.2c-3.2,2.5-6.9,4.9-10.8,6.2
		c-3.9,1.3-8.1,0.5-11.2-2.9c-7.8,5.5-15.2,3.8-22-2.7c-2.7-2.6-4.3-3-7,0.1c-5.1,5.7-12.9,5.7-18.6-0.1c-2.6-2.7-4.4-2.5-7.4-0.9
		c-8.9,4.7-15.5,2.7-21-5.9c-0.4-0.6-0.8-1-1.4-1.8c-0.5,0.7-0.9,1.1-1.1,1.6c-4.8,7.6-11.3,8.2-17.3,1.3c-2-2.2-3.4-2.8-6-1.2
		c-8.3,5.3-10.6,4.8-16-3.3c-0.3-0.5-0.7-0.8-1.3-1.6c-3.3,3.9-6.8,6.9-12.3,4.5C297.2,702.9,296.7,698.9,296.8,694.1z M312.5,646.8
		c0.6-4.6,1.9-9.4,4.1-13.4c3.2-5.8,10.1-5.5,13.6,0.1c0.4,0.7,0.9,1.5,0.8,2.3c-0.9,9-2,18-3,27.5c-4.9,0.2-10.1,0.5-15.7,0.7
		C312.4,658.1,311.8,652.3,312.5,646.8z M328.1,668.3c1.1,7.3,2.6,14.5,2.9,21.7c0.1,2.1-2.9,4.9-5.1,6.2c-1.5,0.8-5,0.2-6.1-1.1
		c-2-2.2-3.3-5.2-4.1-8.1c-1.6-5.9-2.7-11.9-4.2-18.6C317.7,668.3,323,668.3,328.1,668.3z M381.7,638.1c-1.2,5.7-1,11.7-1.3,17.6
		c-0.1,1.9,0,3.9,0,6.3c-8,0-15.3,0-23.8,0c0.9-7.2,1.1-14.4,2.8-21.2c1.4-5.6,3.8-11.2,7.1-15.9c4.2-6.1,9.5-5.2,13.2,1.2
		C381.8,629.9,382.7,633.5,381.7,638.1z M379.7,696.2c-9.9,7.3-16,5.2-19.1-6.9c-1.2-4.6-2-9.3-2.7-14c-0.4-2.6-0.1-5.3-0.1-8.4
		c7.4,0,14.8,0,22.2,0c0.5,6.7,0.9,13.4,1.4,20.1c0.1,1,0.2,2,0.6,2.9C382.8,692.6,382.1,694.4,379.7,696.2z M353.1,661.3
		c0,0.2-0.3,0.5-0.8,1.2c-6,0-12.4,0-19.3,0c-0.2-10.3-0.5-20.8,3.7-30.8c1.8-4.2,5.2-6.6,9.9-6.4c4.5,0.2,7.6,2.6,9.5,6.6
		c0.4,0.9,0.8,1.9,0.7,2.8C355.6,643.6,354.4,652.5,353.1,661.3z M356,688.1c0.3,3.7-5,9.9-9.5,11.1c-4,1.1-6.7-0.6-8.9-5.7
		c-3.4-8.1-4.5-16.7-4.4-26.4c6.2,0,11.8-0.1,17.4,0.1c1,0,2.6,1.5,2.8,2.6C354.4,675.9,355.2,682,356,688.1z M404.9,654.4
		c-0.2,2.2,0,4.4,0,7c-7.4,0-14.1,0-21.4,0c0-12.4-1.6-24.8,5.4-36c1.2-1.8,2.9-3.4,4.7-4.7c2.5-1.9,5.2-1.7,7.8,0.1
		c4.1,2.9,5.9,8.1,5.3,13.1C405.8,640.7,405.4,647.6,404.9,654.4z M405.9,696c-3,3.2-6.8,6.1-11.7,5.7c-4.8-0.4-6.1-4.2-6.8-8
		c-1.2-6.8-1.8-13.6-2.7-20.5c-0.3-2.2-0.4-4.4-0.7-7.2c6.9,0,13.3,0,20.1,0c0.5,6.4,1,12.7,1.6,18.9c0.1,1.5,0.5,3.1,0.6,4.6
		C406.3,691.7,407.1,694.8,405.9,696z M427.3,665.1c1,0,2.7,1.6,2.7,2.5c0.8,8.9,1.5,17.9,1.8,26.8c0.1,4.1-1.6,8-5.5,9.6
		c-4.4,1.8-7.9-1.1-10.7-4.1c-1.7-1.8-3.3-4.2-3.7-6.5c-1.6-9.2-2.7-18.4-4.1-28.6C415.3,665,421.3,664.8,427.3,665.1z M411.2,627.9
		c1.9-6.2,7-9.9,11.1-9.3c4.1,0.6,7.5,5.4,7.9,12.1c0.5,8.7,0.6,17.4,0.9,26c0,1.3,0,2.5,0,4.4c-7.9,0-15.1,0-22.8,0
		C408.1,649.9,407.9,638.7,411.2,627.9z M438.1,660.9c-1.1,0-2.2-0.1-4.1-0.2c0.5-10.8,1-21.4,1.6-31.9c0.1-1.6,0.9-3.2,1.6-4.8
		c3.6-7.9,10.5-8.6,15.5-1.5c1.7,2.5,3.4,5.5,3.6,8.4c0.8,9.7,1,19.5,1.5,30C450.6,660.9,444.3,660.9,438.1,660.9z M453,696.7
		c-0.7,1.6-1.8,3.2-3.1,4.4c-5.4,5.2-10.6,4.2-12.8-2.9c-1.4-4.6-2.1-9.6-2.4-14.4c-0.4-5.6-0.1-11.2,0-16.8c0-0.4,0.2-0.8,0.4-1.7
		c7.5,0,14.7,0,22.3,0C457.5,676.1,457.1,686.6,453,696.7z M460.8,666.5c0-0.3,0.1-0.5,0.3-1.2c6.9,0,13.6,0,21.4,0
		c-0.8,9.3-0.7,18.3-2.7,26.9c-2.2,9.3-14.2,11.9-20,5.1c-0.7-0.9-1.4-2.2-1.3-3.3C459.3,684.8,460.1,675.7,460.8,666.5z
		 M460.6,626.1c3.9-7.5,10.5-8,16.1-1.6c4.2,4.7,4.9,10.7,5.6,16.5c0.6,5.7,0.3,11.5,0.2,17.2c0,1-1.5,2.8-2.4,2.9
		c-5.2,0.3-10.4,0.2-15.6,0.1c-1.1,0-2.2-0.1-3.3-0.2c-0.5-9.7-1-18.9-1.4-28.1C459.8,630.5,459.6,627.9,460.6,626.1z M513.7,662.1
		c-1.4-9.8-3-18.7-3.9-27.6c-0.4-4.1,2.7-6.6,6-8.4c3.7-2,8.6-1.1,11.2,1.9c1.3,1.6,2.4,3.5,3.1,5.4c3.4,9.3,3.1,18.9,3.1,28.6
		C526.3,662.1,519.8,662.1,513.7,662.1z M533.2,667.2c-0.7,10.2-1,19.8-5.8,28.5c-2.3,4.2-5.4,4.8-9.6,2.6c-1.1-0.6-2.1-1.4-3.2-2.1
		c-3.4-2.4-5.2-4.7-3.8-9.7c1.8-6.2,1.8-12.9,2.5-19.3C519.8,667.2,526.2,667.2,533.2,667.2z M509.8,661.3c-8.7,0-16,0-24.1,0
		c0-3.7,0.2-7,0-10.3c-0.3-4.9-0.7-9.8-1.4-14.7c-0.8-5.3,1.4-11.2,6-14.2c3-2,6.7-1.5,9.1,2.2c2.6,3.9,5.5,8.1,6.6,12.6
		C507.9,644.7,508.6,652.8,509.8,661.3z M486.6,666.3c7.1,0,14.4,0,22.3,0c-0.4,10.6-1.1,20.5-5.9,29.4c-3.3,6.1-15.8,6.3-19.3,0.5
		c-0.3-0.5-0.3-1.3-0.3-2C484.4,685,485.5,675.7,486.6,666.3z M554.4,661.5c0,0.8-1.7,2.2-2.6,2.2c-4.6,0-9.2-0.5-13.5-0.7
		c-1.2-9.5-2.2-18.3-3.3-27.2c-0.1-0.5,0-1.2,0.3-1.6c2.7-3.1,6.3-3.8,10.2-3.9c3-0.1,4.3,1.6,5.3,3.9
		C554.5,643,554.5,652.2,554.4,661.5z M555.1,668.4c-2.1,8.2-3.6,16-6.3,23.4c-2.5,6.8-8.7,7.1-12.8,1c-0.5-0.7-0.9-1.8-0.8-2.7
		c0.9-7.3,2-14.7,3.1-22.6C543.2,667.9,548.6,668.1,555.1,668.4z M566.9,690.5c-3,4.2-7.2,4.6-10.7,1c-0.8-0.8-1.3-2.4-1.2-3.6
		c0.5-5.4,1.4-10.8,1.8-16.2c0.2-2.4,0.9-3.6,3.5-3.3c3.9,0.4,7.7,0.5,11.8,0.7C572.7,677,571.4,684.2,566.9,690.5z M558,663.6
		c-0.8-8-1.8-15.9-2.1-23.8c-0.1-1.4,2.4-4.1,3.8-4.1c2.8-0.1,5.8,0.9,8.5,2c1,0.4,1.7,2.3,1.9,3.6c1.1,7.5,2.1,15.1,3.2,23
		C567.1,664,562.5,663.8,558,663.6z M554.8,636.3c-2-4.3-3.4-8.9-8.6-9.9c-5.4-1.1-8.8,1.8-12.1,6c-3-4.7-5.6-9.6-11.9-10.1
		c-6-0.5-10.6,1.7-14.2,7c-3.4-4.9-6.1-10.1-12.5-11.3c-5.3-1-9.6,1.6-13.2,7.7c-4-3.3-7.6-7.9-12.3-9.6c-6.4-2.3-9.4,3.8-12,7.9
		c-3.2-2.8-6-6-9.5-8.2c-5.5-3.5-9.8-2-12.6,3.9c-1.1,2.3-1.7,4.7-2.8,7.8c-1.6-6.6-3.7-12.4-10.9-13.2c-7.7-0.8-10.4,5.2-13.5,10.8
		c-8.9-15-17.1-11-24.7,2.1c-1.2-2.1-2.3-4.2-3.7-6.1c-4-5.2-8.8-6-13.7-1.7c-3.2,2.8-5.8,6.4-8.7,9.8c-3-4.6-7.4-7.6-13.6-7.3
		c-6.4,0.3-9.4,4.8-12.4,9.9c-3-3.8-6.7-7.3-11.4-5.3c-3.8,1.6-6.8,5.1-10.5,8c-1.3-2.6-4.6-4.6-8.4-3.3c-3.2,1.1-6,3.5-8.6,5.2
		c-0.4-3.1,1.8-8.3,5.5-11c4.8-3.4,9,0.5,13.7,1.6c1-1.5,1.9-3.1,3-4.5c4-5.3,10.3-5.8,14.9-1c2.5,2.7,3.7,2.6,5.5-0.6
		c2.7-4.7,6.5-8.8,12.5-7.3c3.2,0.8,5.9,3.4,8.4,5c4-2.9,8-6.8,12.7-8.9c5.9-2.6,10.6,0.3,12.9,5.6c4.5-2.4,8.5-5.4,12.9-6.7
		c5.4-1.6,9.3,1.8,11.7,5.9c4.2-3.5,7.8-7.6,12.3-10.2c4.8-2.8,9.4-0.7,13.7,4.7c10.3-8,12.8-7.4,26.1,6.3c2.5-4.9,6.4-8.2,11.8-6.7
		c4.5,1.3,8.4,4.3,12.8,6.6c8.7-9.5,13.8-8.8,25.5,4.4c0.6-0.5,1.3-0.9,1.8-1.5c5.9-6.6,12-6.5,17.7,0.4c0.9,1.1,1.7,2.3,2.4,3.5
		c1.1,1.9,2.1,2.2,3.9,0.6c7.3-6.5,12.2-5.7,17.7,2.7c0.5,0.8,2.1,1,3.2,1.3c0.3,0.1,0.8-0.3,1.1-0.5c8.7-3.4,12.2-1.9,15.4,6.9
		c0.6,1.5,0.9,3.1,1.6,5.5C566.3,629.3,560.3,628.6,554.8,636.3z M639.1,573.5c-16.7-2.3-27.2-12.9-35.5-26.4
		c-4.2-6.9-7.1-14.3-6-22.8c0.7-5.2,2.7-9.7,7-12.9c2.6-1.9,5.4-3,8.4-0.8c-9,14.3-7.5,27.3,4.2,41.5c12.3,15,28.5,17.5,46.1,15.5
		C659.4,571.6,647.3,574.6,639.1,573.5z M586.4,518.5c-5.4-10.8-0.4-28.4,8.9-33.5c2.2-1.2,5.1-1.8,7.6-1.9
		c9.2,0,19.3,8.4,21.4,17.4c1.4,6-0.5,10.7-6.1,14.9c0.6-1.6,0.9-2.4,1.2-3.1c1.9-4.1,1.3-7.9-1.6-11.4c-5-6.1-13.2-8.9-20.4-6.5
		c-7.6,2.5-9.9,9-11,16C586.2,512.8,586.4,515.1,586.4,518.5z M655.4,488.2c-9.5-6.7-19.5-7.2-29.7-1.6c-1.1,0.6-2.1,1.2-3.5,2.1
		c6.3-12.7,24.3-16.5,36.2-7.9c7.3,5.3,12.5,12.5,15.2,21.2c3.2,10.5,0.5,19.8-7.3,26.9c-8.2,7.5-18.2,7.3-28.1,3.4
		c-3.8-1.5-7.3-4.1-10.9-6.2c0.2-0.2,0.4-0.4,0.6-0.6c5.4,0.7,10.7,1.8,16.1,2c10.1,0.3,17-5.6,19.2-15.3
		C665.4,502.5,664,494.2,655.4,488.2z M699.3,504.6c-8.1,11.3-15.1,23.3-20.3,36.3c-4.1,10.2-10.6,18.8-22.9,20
		c-10,0.9-19.3-1.1-27.3-7.5c-6.9-5.5-12.3-12.3-15.9-20.4c-3.2-7.2-0.4-13.7,6.8-16.9c4.9-2.2,8.1-5.7,8.3-11.2
		c0.1-2.2,0.8-3.2,3-3.8c4.2-1.2,8.3-2.2,11.8,1.6c3.4,3.7,4.2,8.2,2.8,13c-1.3,4.7-4.7,7.2-10.1,7.2c-3.6,0-7.2-0.5-11.1-0.7
		c0.7,8.1,5.5,12.3,12.1,14.5c15,5.1,28.3,1,40.2-8.5c9.9-7.9,15.2-18.1,13.5-31c-1.5-11.3-7.9-19.7-17.3-25.8
		c-14.3-9.2-29.2-8.9-44-1.2c-5.4,2.8-9.2,7.3-11.3,13.5c-7.1-4-14.2-6-21.7-1.8c-6.8,3.8-11.1,9.8-12.8,16.4
		c-6.5-2.5-12.7-5.1-19.1-7.1c-4.6-1.4-5.5-0.6-5,4c0.6,5.4,1.8,10.7,2.7,15.9c-5.1-0.3-11-1-16.9-0.7c-6.3,0.3-12.8,0.6-18.7,2.4
		c-28,8.5-37.4,42.1-18.5,65.3c16.4,20.1,48.7,15.9,59.4-7.9c3-6.6,3.1-13.2-0.8-20.6c-1.6,2.1-2.8,3.5-3.9,5
		c-3.7,5.1-8.3,6.9-13,5.2c-6.8-2.6-9.3-8.4-6.4-14.9c4.3-9.8,17.5-16.8,27.9-14.8c1,0.2,2,0.7,3.1,1.2c-3.2,2.6-6.1,4.9-9,7.3
		c0.2,0.3,0.5,0.6,0.7,0.9c4.4-1.3,8.7-2.7,13.1-4.1c0.1,0.3,0.3,0.7,0.4,1c-3.1,2.4-6.3,4.8-9.4,7.2c0.2,0.4,0.4,0.7,0.6,1.1
		c2.6-0.9,5.3-1.8,9.1-3.2c-4,3.6-7.5,6.2-7.3,11.2c4-2.5,7.7-5.3,11.8-7.2s8.5-2.5,13,0.8c-14.6,4.2-27.6,17.6-28.5,29.3
		c8.3-8.2,13.7-20.1,27.5-20.9c-17.3,10.2-23.5,26.6-26.7,45c7.8-13.9,12.2-30.8,32-35.9c-17.2,17.1-29.6,35.5-29,60.9
		c-5.7-5.2-11.2-5.7-16.3-1.4c-3.5-2.7-6.4-6-10-7.6c-4.1-1.8-8.2,0.2-11.3,3.4c-9.3-11.4-16.4-12.3-24.3-4c-4.4-3-8.3-6.8-13-8.6
		c-5-2-10.3-0.9-13.2,3.9c-4.6-2.1-8.7-4.8-13.2-5.8c-5.2-1.1-9.6,1.2-11.6,6.8c-12.2-12.9-18-14.4-25.7-6.7
		c-5.9-7.5-12.6-5.6-19.3-0.3c-2.3,1.8-4.7,3.6-6.9,5.4c-7.1-8.9-16.7-6.5-23.8,1.3c-9.9-8.2-16.2-7.1-26.3,4.8
		c-3.1-4.7-7.4-8.2-12.9-6c-4.5,1.8-8.1,5.5-12.4,8.5c-8.6-5.7-10.8-5.3-20.5,5c-5.6-4.1-11.2-4.6-17.1,2.6
		c0.5-26.3-11.1-45.4-29.4-62.4c19.8,4.6,24.5,21,31.8,35.3c2.2-12.1-11-34.3-26.1-44.2c14,0.6,19.4,12.6,27.7,20.9
		c-0.7-11.4-13.8-25.1-27.9-29.1c5-4.6,10.4-3.2,23.7,6.2c0.7-3.9,0.4-4.5-6.7-11c3.4,1.2,6.1,2.2,8.7,3.2c0.2-0.3,0.5-0.6,0.7-1
		c-3.2-2.5-6.3-4.9-9.5-7.4c0.1-0.3,0.2-0.6,0.2-0.9c4.5,1.3,9,2.6,13.5,3.9c0.2-0.2,0.4-0.5,0.6-0.7c-2.9-2.4-5.7-4.7-9.5-7.9
		c3.3-0.4,5.8-1,8.2-0.9c10.5,0.5,18.5,5.6,23.3,14.9c3,5.8,1.5,10.4-3.9,13.7c-5.1,3.2-10,2.4-14.2-2.5c-1.6-1.9-3-3.9-5-6.5
		c-3.4,6.1-4.2,11.6-2.1,17.3c5,13.8,15.8,20.9,29.4,23.8c12.8,2.7,23.1-2.5,31.3-12.3c20.6-24.8,8.2-60.9-23.4-66.7
		c-8.8-1.6-18.2-0.5-27.3-0.6c-1.4,0-2.7,0.4-3.4,0.5c0.9-5.6,1.9-11.2,2.8-16.9c0.5-3.5-1-4.5-4.4-3.7c-6.9,1.6-13.6,3.4-18.9,8.7
		c-6.6-18.6-21.4-24.6-35.1-16.1c-8.2-16.7-23.1-20.2-39.4-18.2c-15.2,1.9-26.2,10.8-32,25.4c-2.9,7.4-2.7,14.8,0.3,22.2
		c7.7,19.2,32.9,30.9,51.7,23.9c7.5-2.8,11.1-7.1,12-14.7c-3.1,0.3-6.2,0.7-9.2,0.8c-9.1,0.4-13.7-4.7-12.3-13.6
		c1.2-8.3,9.8-12.1,16.7-7.3c0.6,0.4,1,1.6,1.1,2.4c0.5,6,3.7,9.8,9.1,12c5.5,2.2,8.9,8.2,7.1,13.6c-5.7,16.7-22.2,33.9-44.8,30.9
		c-7.7-1-13.7-5-17.7-11.6c-2.1-3.5-4.5-6.9-5.8-10.7c-4.1-12.3-11.2-22.9-18.6-33.3c-7.3-10.2-7.8-21-2.9-31.9
		c3.8-8.4,8.3-16.6,13-24.5c12.8-21.5,15.7-45.1,14.7-69.4c-0.6-13.9-2.3-27.8-2.1-41.6c0.3-19.7,7.8-37.2,20-52.6
		c0.5-0.7,1-1.3,1.1-2.6c-0.9,0.7-1.8,1.3-2.6,2c-18,16.1-26,36.5-25.3,60.5c0.2,5.9,0,11.7-0.8,17.9c-3.1-4.6-6.2-9.2-9.3-13.9
		c-0.4,12.2,7.6,21.8,9.2,33.2c-0.3,0.1-0.7,0.3-1,0.4c-4.8-9.8-9.5-19.6-14.3-29.4c-0.5,0.2-1.1,0.4-1.6,0.6
		c0.7,2.9,1.1,5.9,2.2,8.6c3.9,10.4,8.2,20.6,12,31c1.2,3.3,1.5,6.8,1.4,10.5c-13-21.8-24.8-44-32.8-68c0.6-0.5,1.1-0.9,1.7-1.4
		c4.4,5.2,8.7,10.4,13.1,15.6c0.3-0.3,0.6-0.6,0.9-1c0.5-4.2,0.3-8.6,1.6-12.6c1.8-5.4,4.4-10.6,7.5-15.5c9.9-15.9,11-32.1,2.8-48.9
		c-0.2-0.3-0.1-0.8-0.3-1.5c5.6-2.5,9.6-6.6,11-13.4c5.5,6.5,11.7,9.9,19.4,7.9c9,9.8,19.7,15.9,33,19c0-10.7,0-20.7,0-30.4
		c3.9-2.2,8.6-4.3,12.6-7.5c4.5-3.5,5.2-8.6,2.8-14.1c10,2,16.8-1.2,20.7-8.9c2.9-5.7,1.2-10.7-2.2-15.3c-6.7-9.2-16-15.2-26.3-19.8
		c-1.2-0.6-2.4-1.1-4.4-2c21.3-0.5,41.6-1.3,60.3-13.4c-0.5,1.9-0.8,3-1,4.2c-1,5.2,1.6,8.8,5.6,11.3c4.1,2.6,8.7,4.5,12.8,7.2
		c4.1,2.7,7.8,5.9,11.9,9c2.2-5.1,2.6-11.2,0.3-17.6c7.9,2.8,15.4,13,17.3,23.3c3.5,19.6-11.1,38.2-31.2,39.6
		c-8.6,0.6-16.8-0.5-23.8-6.4c-9.6-8.1-9.6-25.7,0.1-33.8c5.6-4.7,16.8-3.9,21.7,1.4c2.7,3,2.6,6.4,1.5,9.9
		c-1.1,3.5-3.5,5.6-7.7,5.9c-0.1-0.8,0.1-1.8-0.2-2.3c-1.3-1.9-2.4-4.5-4.3-5.4c-2.4-1.2-5,0.1-6.1,2.9c-1.1,2.9-1,5.5,1.8,7.5
		c5.3,3.9,15.3,2.3,19.1-2.9c4-5.5,2.8-13.9-2.7-18.2c-8.5-6.7-20.5-5.7-27.8,2.4c-12.4,13.6-8.5,31.7,8.4,38.9
		c16,6.8,30.2,4.7,44.6-6.6c3.6,6,7.2,11.9,11.1,18.6c0.8-1.5,1.2-1.9,1.3-2.3c1.3-4.6,2-9.6,4-13.9c4.5-9.8,3.3-17.9-4.6-25.5
		c-0.7-0.7-1.3-1.8-1.3-2.8c-0.3-3.5-0.4-7-0.5-11.1c6.5,1.9,11.1,5.7,13.2,11.8c1.5,4.2,2.2,8.7,2.8,13.1c0.8,5.1,1,10.3,1.6,15.5
		c1.8,14.1,14.5,22.2,27.3,17.4c12.6-4.7,11.1-19.1,5-25.4c-3.3-3.4-9.5-3.3-12.5,0.3c-1.1,1.3-1.4,3.6-1.1,5.3
		c0.2,1.1,2,2.6,3.1,2.6c1.4,0,2.9-1.3,4.3-2.1c0.2-0.5,0.3-1.1,0.5-1.6c2.1,1.7,4.8,3,6.2,5.2c1.4,2.3-1.9,8.6-4.7,10.6
		c-5.9,4.2-12.9,3.4-17.8-2c-4.7-5.1-5.7-11.4-6.8-17.8c-0.9-5.4-1.4-10.9-2.8-16.2c-1.3-4.7-3.5-9.1-5.4-13.9
		c4-1.5,10-1.1,12.1-6.1c-4.1-3.7-7.9-7.2-11.7-10.6c-2.2-2-4.1-4.3-6.4-6.1c-7.5-6.1-11-6.2-18.4-0.8c-3.7-1.6-7.3-3.1-10.8-4.8
		c-1.1-0.5-2.1-1.4-2.8-2.3c-4.7-6-10.9-9.1-18.9-10c2-2.1,3.8-4,5.7-6c5.2,4.6,10.3,2.6,15.4,0.2c7.4-3.5,15.1-21.5,14.5-30.1
		c-3.4,0.8-6.8,1.6-10.1,2.5c-3.2,0.8-6.5,1.6-10,2.4c0-10.9-2-21.1-10.1-28.9c5.5-9.5,4.1-15.9-4.8-22.5c-5.1-3.7-10.6-7-12.8-13.5
		c-6.9,5.7-7.5,21.2-1.4,30.7c-13.7,8.1-17.4,18.2-8.7,23.8c-3-3.3-4.3-7-2-11c2.9-5,7.3-8.3,13.1-8.9c7.9-0.9,15.9,4.1,19.8,11.7
		c7.8,15.3,2.8,35.9-11.5,46.9c-3.2,2.4-6.8,4.3-11.3,7.1c3.2-10.2,0.3-18.4-4-27.3c-3.9,9.2-12,13.4-18.4,19.4
		c-3.9,3.6-6.4,8.6-9.6,13c-0.6,0.8-1.3,1.9-2.1,2c-8.7,1-17.3,1.4-26.9-1.5c2.4-0.9,3.9-1.5,5.3-2.1c10.8-4,20.3-9.7,27-19.2
		c4.4-6.3,6.2-13.2,4.3-20.8c-2.8-11.3-8.7-15.4-20.9-15.2c-0.8-4.1-0.5-8.6-2.5-11.8c-2-3.1-6.3-4.8-9.8-7.3
		c10.4-10,21.7-20.2,35.1-27.8c24.8-14.1,51.7-23.2,78.9-31.4c20.5-6.1,41.4-10.4,62.7-12.3c18.6-1.6,37.1-1.2,55.4,2.1
		c41.1,7.3,80.9,18.9,118.3,37.9c15.3,7.7,28.7,18.2,40.7,30.5c0.5,0.5,0.9,1,1.6,2c-10.8,2.6-13.6,7.1-12.1,18
		c-0.4,0.1-0.8,0.3-1.1,0.3c-14.5-0.7-23.5,9.6-21.2,24.2c1.2,7.5,4.7,13.8,10.6,18.1c6.6,4.9,14.1,8.5,21.2,12.7
		c1.3,0.7,2.8,1.1,5.3,2c-9.8,3.1-18.6,2.5-27.5,1.5c-0.6-0.1-1.4-1.3-1.6-2.1c-2.1-6.1-6.3-10.5-11.2-14.4
		c-6.1-4.9-12.9-9.1-16.5-16.9c-4,8.1-7.6,16.1-4.2,25.5c-20.4-7.5-30.8-28.2-24.6-48.4c2-6.7,6-11.7,12.4-14.7
		c7.7-3.6,16-1.6,21.2,5.1c3.2,4,3,7.7-0.4,12.9c8.6-3.8,3.8-17.9-8.9-23.5c5.9-10.9,5.4-24.4-1.3-31c-2.6,7-8.8,10.3-14.1,14.6
		c-7.7,6.2-8.9,13.1-3.5,21.3c-8.1,7.9-10.1,18.2-10.2,29.2c-6.9-1.7-13.5-3.3-20.9-5.1c1.7,9.9,4.2,18.8,10.5,26.1
		c2.1,2.4,5.2,4.3,8.2,5.7c4,1.9,8.2,1.9,12-1.6c1.6,2.1,3.2,4.1,4.7,6.1c-7.6,0.9-13.6,5.2-19.3,11.1c-3,3.1-8.1,4-12.4,6
		c-7.3-5.3-11.7-5.1-18.8,1.1c-2.6,2.3-4.9,5.1-7.5,7.4c-3.2,2.9-6.5,5.6-10.1,8.7c2,5.2,7.7,5,12.9,6.5c-7.1,8.8-7.4,19.5-9,29.8
		c-1,6.4-2.2,12.7-6.8,17.8c-3.4,3.8-7.4,5.5-12.4,4.4c-5.5-1.2-8.7-4.9-10.2-10.1c-1.1-3.9,0.7-5.8,5.3-6.9
		c2.9,1.1,4.7,2.4,6.5,2.3c1.1-0.1,3.1-2.5,2.9-3.5c-0.4-1.9-1.6-4.2-3.2-5.3c-4.7-3.3-10-1.7-12.9,3.3c-4.5,7.8-2.8,16.9,3.9,21.4
		c7.6,5.1,19.4,3.2,25.2-4.1c4.6-5.8,5.3-12.9,6.2-19.8c0.9-6.7,1.6-13.4,3.3-19.9c1.7-6.5,6.5-10.4,12.9-12.4c0,4,0.2,7.7-0.1,11.3
		c-0.1,1.1-1.2,2.4-2.2,3.2c-6.1,5.3-8.2,14.5-5,21.9c2.4,5.7,4.5,11.5,6.9,17.6c3.9-4.8,7.9-10.4,9.9-16.7
		c5.3,2.8,10.3,6.3,15.9,8.1c12.4,4,24.5,2.1,35.5-4.9c10.2-6.5,12.8-19.6,6.3-31c-6.3-10.8-17.8-14.5-28.5-8.9
		c-7.1,3.7-10,11.6-6.6,18.2c3,6,11.7,8.7,18.3,5.6c3.7-1.7,5-4.3,3.9-7.7c-1-2.9-3-4.4-6.1-3.8c-3.5,0.7-4.8,3-4.4,6.5
		c0,0.4-0.2,0.8-0.3,1.3c-4.3-0.1-6.9-2.4-7.9-6.3c-1.1-4-0.6-7.8,3-10.7c7.2-5.7,18.8-3.9,23.8,3.7c8.9,13.4,3.4,30-12.2,34.7
		c-22.3,6.8-43.6-6.5-46.6-28.5c-1.7-12.6,5.9-27.3,17.1-32.9c0,6,0,12.1,0,18.2c0.5,0.1,0.9,0.3,1.4,0.4
		c4.5-8.8,13.8-10.8,21.2-15.5c8.2-5.1,9.3-7.2,8.1-17c9.1,5.4,18.5,9.4,28.7,10.7c10,1.2,20.1,1.9,30,2.8c-2.1,1-4.6,2.1-7.1,3.3
		c-8.2,4.2-15.8,9.2-21.4,16.7c-5.4,7.4-6,12.7-2.2,18.6c4.3,6.7,10.4,9,19.3,7.1c-2.1,5.5-1.6,10.6,3,14.2c3.9,3,8.5,5.1,12.6,7.4
		c0,9.5,0,19.5,0,30.3c13.2-3,23.9-9.2,33-18.9c8.2,1.1,11.2,0,18.4-6.7c3.7,4.3,7.3,8.7,11.5,13.5c-1.1,3.3-2.9,7.7-3.9,12.3
		c-2.4,10.5-1.4,20.7,3.7,30.3c1.7,3.2,3.5,6.4,5.3,9.6c4.4,7.6,8,15.5,6.4,24.8c0.4,0.2,0.8,0.5,1.2,0.7c4.8-4.8,9.7-9.6,14.5-14.4
		c-7.1,24.4-19,46.5-31,68.5c-0.5-0.1-1-0.2-1.5-0.3c0.5-3.2,0.5-6.6,1.6-9.6c4-10.9,8.5-21.7,12.6-32.6c0.9-2.4,1.3-5.1,1.5-7.8
		c-7.1,8.6-10.3,19.2-15.3,28.9c-0.4-0.1-0.8-0.2-1.2-0.3c0.6-2.5,0.9-5.1,1.8-7.5c2.4-6.9,5.1-13.7,7.5-20.6c0.5-1.4,0.5-3,0.7-4.5
		c-0.3-0.2-0.7-0.4-1-0.5c-3,4.5-6,9-9.6,14.3c-0.2-2-0.4-3-0.4-4c-0.2-9.6,0.1-19.2-0.7-28.7c-1.8-19.8-11.9-35.3-27.2-47.7
		c0.5,0.8,1,1.7,1.6,2.4c14.4,18.5,21,39.5,20,62.9c-0.5,12.1-2.1,24.1-2.5,36.2c-1,25.1,4.6,48.4,18.2,69.8c4.6,7.2,8.3,15,11.3,23
		C706.7,486.9,705.3,496.2,699.3,504.6z M556.4,563.3c2.7-0.6,5.1-3,7.6-4.7c-0.7,7.9-4.9,12.6-13.1,14.4c-8.9,1.9-17.2-1.4-21-9.3
		c-10.4-21.5,2.6-40.6,24-41.5c7.3-0.3,14.1,1.4,20.6,4.4c-4.8,0-9.5-0.2-14.2,0c-12,0.8-20.8,8.4-22.4,19.2
		C536.4,555.5,546.8,565.6,556.4,563.3z M563.1,518c-13.6-4.5-26.8-4-39.4,3.2c-10.7,6.1-15.4,15.7-15.5,27.6
		c-0.1,14.1,4,26.6,15.3,36.3c-2.4-1.4-5-2.7-7.3-4.3c-15.6-11.4-20-37.5-8.6-51.6c6.2-7.6,14.8-11.6,24.1-13.7
		c14.6-3.2,29-2.8,42.6,4.3c1.5,0.8,2.8,1.7,4.2,2.6c-0.2,0.2-0.3,0.5-0.5,0.7C573.2,521.4,568.2,519.7,563.1,518z M577.1,515.1
		c-2.7-1.7-4.5-3-7.3-4.8c0.9,1.9,1.5,2.9,2,4c-0.2,0.1-0.4,0.4-0.6,0.4c-5.2-1.6-9.3-10.7-8.6-19.1c11,0,20.3,6.4,18.4,13
		c-2-1.9-4-3.8-6-5.6c-0.2,0.2-0.5,0.4-0.7,0.6c2.9,3.8,5.8,7.6,8.7,11.4c-0.3,0.2-0.7,0.5-1.1,0.7c-4.2-4.9-8.4-9.9-12.5-14.8
		c-0.5,0.4-1.1,0.8-1.6,1.2C570.6,506.1,573.5,510.2,577.1,515.1z M291.4,503c-2.1,1.9-4.2,3.8-6.5,5.8c-1.3-4,0.4-6.8,3.4-8.3
		c4.7-2.3,9.7-4,14.7-6c1.9,8.5-2.4,18.2-9.1,20.5c0.8-1.5,1.4-2.6,2.5-4.7c-2.5,1.6-4.2,2.7-5.8,3.7c-0.2-0.2-0.4-0.4-0.5-0.6
		c1.5-1.9,3-3.8,4.4-5.8c1.3-1.9,2.5-3.8,3.7-5.7c-0.5-0.3-0.9-0.7-1.4-1c-4.3,5-8.5,10-12.8,15.1c-0.3-0.2-0.6-0.5-0.9-0.7
		c2.9-3.9,5.9-7.8,8.8-11.7C291.7,503.4,291.6,503.2,291.4,503z M357.5,544.1c-1.4-14.1-11-23.7-26.8-27.6c-8-2-16.2-1.9-24.1,0.5
		c-6.5,2-12.9,4.3-19.5,6.1c5.9-4.7,12.7-7.4,20.1-8.5c12.3-1.8,24.4-1.3,36,3.7c18.8,8,25.9,23.1,19.9,42.8
		c-3.3,10.9-9.6,19.1-20.5,23.4C355.2,573.9,359.1,559.9,357.5,544.1z M327.2,541.8c-3.6-9.6-10.9-14.3-20.8-15.2
		c-4.7-0.4-9.5-0.1-15.6-0.1c4.8-1.5,8.6-2.9,12.5-3.8c15.3-3.5,31,4.2,35.3,17.3c2.9,8.8,1.7,17.3-3,25.1c-4.2,7-11.1,9.2-19,8.1
		c-7.6-1.1-12.7-5.6-14.1-12c-0.2-1-0.2-2.1-0.3-3.5c6.4,6.7,11.9,7.6,18.7,3.3C327.3,556.8,329.9,549.2,327.2,541.8z M285.6,163.2
		c-5.3,7.2-8.3,17.4-21,15.9c6.6-11.6,18.2-17.9,25.9-28.5c5.1,10.4,0.5,24.8-8,25.8c1.4-4.2,2.8-8.3,4.1-12.4
		C286.3,163.6,285.9,163.4,285.6,163.2z M309.1,172.7c13.4,1.8,23.1,14.6,22.1,30.2c-3-8.3-9.6-10.6-15.5-13.8
		c-4.6-2.5-8.6-5.6-9.3-12.5c5.3,3.8,9.9,7,14.9,10.5C319.9,179.8,313.8,177.2,309.1,172.7z M352.8,222c7.4,6.2,9.6,15-0.8,30.8
		c-5-5.1-6-13.9-1.6-20.1c0.3,4.1,0.6,7.4,0.9,10.8c0.4,0.1,0.9,0.2,1.3,0.2c0.8-3.7,2.3-7.4,2.3-11
		C354.9,229.1,353.3,225.6,352.8,222z M352.4,198.3c4,1.2,7,2.1,10.3,3c0.4-3.4-1.6-4.7-3.8-5.5c-3.5-1.4-7.1-2.5-10.6-3.9
		c-1.6-0.6-3.1-1.7-4.8-2.7c5.9-3.6,9.8-3.7,14.4,0.3c5.3,4.5,10.3,9.3,15.4,14C366.9,205.6,357.1,203.6,352.4,198.3z M321.1,154.6
		c-0.3-0.3-0.5-0.6-0.8-0.8c1-3.4,1.5-7.1,3.3-10c1.2-2,4.2-3.1,6.6-4c3.8-1.3,7.8-1.9,12-2.9c-1.3,11.6-14,25-22.1,23.2
		c11.1-6.8,13.9-9.7,14.6-14.9C330.3,148.1,325.7,151.4,321.1,154.6z M306.1,103.4c-5,0.6-7.9-2.4-10.1-6c-4.4-6.9-3.5-14-0.4-21.3
		c5,5.5,9.9,10.6,14.6,16c3.7,4.2,3.9,7.1,1.3,11.9c-4.7-6.1-9.5-12.3-14.4-18.7C297.4,92.5,303.9,96.8,306.1,103.4z M583,176.1
		c-0.1,0.3-0.3,0.6-0.4,0.9c-1.8-1.4-4.1-2.4-5.3-4.1c-4.4-6.7-6.3-13.9-2.2-22.5c7.7,10.8,19.6,16.8,25.6,28.7
		c-5.3,0.7-9.5-0.3-12.6-4.3c-2.8-3.6-5.3-7.5-7.9-11.2c-0.4,0.1-0.7,0.2-1.1,0.3C580.5,167.9,581.8,172,583,176.1z M558.4,177.3
		c0.4,0.2,0.7,0.5,1.1,0.7c-1,2-1.5,4.4-3,5.8c-2.6,2.5-5.6,4.6-8.8,6.3c-8,4.3-8.4,4.5-13.3,11.5c-1.1-14.3,8.1-26.5,22.6-29.2
		c-4.8,4.4-10.9,7.1-12.7,14.7C549.5,183.5,553.9,180.4,558.4,177.3z M545.4,160.7c-2.1-0.4-4.5-0.3-6.4-1.2
		c-6.5-3-14.6-15.1-15.4-22.5c9.7,2.3,21.3,1.8,21.3,16.9c-5.3-1.7-9.7-5.3-14.1-9.1C532.7,152.8,539.2,156.2,545.4,160.7z
		 M568.5,85.5c-4.8,6.1-9.5,12.3-14.2,18.3c-2.7-3.9-2.6-7.4,0.8-11.3c4.8-5.4,9.8-10.7,14.7-16c7.1,10.2,1.5,26-10.4,27
		c3.5-6.2,6.8-11.9,10-17.6C569.2,85.8,568.9,85.6,568.5,85.5z M514,244.5c0.6-4.4,1-7.6,1.5-11.8c4.1,6.4,3.4,13.1-1.6,20.3
		c-1.8-3.7-3.5-7.3-5.2-10.9c-3.7-8.2-2.6-13.8,4.8-20.2c-0.5,1.7-0.7,3.4-1.5,5C509.2,232.7,510.7,238.1,514,244.5z M502.7,200
		c0.2,0.4,0.4,0.9,0.6,1.3c2.9-0.9,5.9-1.8,8.8-2.7c0.1,0.4,0.2,0.8,0.3,1.3c-6,4.4-12.7,4.8-20.5,4c5.5-5,10.5-9.4,15.2-14.1
		c4.6-4.6,9.5-3.7,14.8-1.2C517.1,195.1,506.3,192.1,502.7,200z"/>
	<path class="st0" d="M432.7,732.5c-3.1,2.3-8,5.8-8.6,6.2c3.1,3.8,6.3,7.6,9,10.9c2.5-2.7,5.7-6,8.8-9.3
		C440.3,739.3,433.8,733.7,432.7,732.5z"/>
	<path class="st0" d="M424.1,738.7C424.1,738.7,424.1,738.7,424.1,738.7C424,738.8,424,738.8,424.1,738.7z"/>
	<path class="st0" d="M430.1,131.4c1.2,3.1,2.3,6.2,3.4,9.3c0.3-0.1,0.6-0.1,0.9-0.3c1.3-7.5,2.9-15,3.8-22.6
		c1.8-14.7,3.5-29.5,4.7-44.3c0.5-6.1-0.9-12.2-4.2-17.7c-2.2-3.7-5.3-5.5-9.7-5.3c-4.2,0.3-6.5,2.8-8.1,6.4
		c-3.7,8.6-3.7,17.5-2.8,26.5C419.8,99.9,424.5,115.8,430.1,131.4z"/>
	<path class="st0" d="M451,299l-18.3-17.3c-2,3.7-13,17.1-12.3,16.5c5.7,5.7,11.4,11.3,16.9,16.8C439.8,312.3,446.6,303.2,451,299z"
		/>
	<path class="st0" d="M442.4,344.4c0,0-10.5-12.1-10.8-13c-2.9,4.2-5.5,8.1-8.1,11.8l8.8,14.3C432.3,356.9,442.8,344.8,442.4,344.4z
		"/>
	<path class="st0" d="M420.2,580.1c4,4.1,8,8.2,11.6,11.9c3.6-3.8,7.5-7.9,11-11.5c-3.7-3.1-7.7-6.5-11.2-9.4
		C427.9,574.1,423.7,577.3,420.2,580.1z"/>
	<path class="st0" d="M427.7,384c-0.1,3.5,2.7,6.2,6.4,6.3c4,0.1,7.1-2.6,7.1-6.1c0-3.2-3.1-6-6.7-6.1
		C430.9,378,427.9,380.7,427.7,384z"/>
	<path class="st0" d="M446,444.4c-4.1-7.1-8.4-14.1-13.1-21.9c-1.8,3.4-3.2,5.9-4.5,8.5c-10.1,20.2-20.1,40.5-32.7,59.4
		c-5.7,8.5-10.9,17.4-14.7,26.9c-6.5,16-3.4,30.8,8.4,43.7c5.4,5.9,11.8,7.5,19.5,5.5c9.8-2.7,17.2-8.6,23.5-16.6
		c3,3.7,5.6,7.4,8.6,10.7c4.1,4.8,8.9,8.4,15.8,8.4c14.3,0,25.7-9.9,28.5-25.4c2.8-15.7-1.2-30.3-8.3-43.9
		C467.1,480.9,456.5,462.7,446,444.4z M403.3,531.5c2,10.1,9.1,14.7,19.4,13.3c0.8-0.1,1.5-0.2,2.8-0.4
		c-13.1,9.5-29.1,2.4-31.5-13.5c-1.2-8.2-0.6-16.7,2.9-24c8.7-18.2,18.4-35.9,27.7-53.8c0.5,0.2,0.9,0.4,1.4,0.7
		c-3,6.8-5.9,13.7-8.9,20.5c-6,14.1-11.9,28.2-14.3,43.4C402.2,522.2,402.5,527,403.3,531.5z M471,534
		c-3.8,13.9-18.1,18.9-30.8,10.4c1.1,0.1,1.5,0.1,1.9,0.1c12.1,2.1,20.6-4,20.9-16.2c0.1-7.7-0.6-15.9-3-23.2
		c-5.5-16-12.3-31.6-18.5-47.4c-0.6-1.5-1.2-3-1.8-4.5c0.4-0.2,0.8-0.4,1.2-0.6c9.1,17.3,18.7,34.5,27.2,52.1
		C472.4,513.9,473.8,524,471,534z"/>
	<path class="st0" d="M647.8,385.6c10.5-9.4,8.7-19.5-5.3-29.2c3.7-5.8,3.2-11.5-0.8-16.8c-3.8-5.2-8.8-8.5-16-7.5
		c1.2-7.3-1-13.1-6.2-17.7c-5.6-4.8-12-4.5-18.5-2.6c-0.7-9-4-16.6-12.4-20.3c-7.6-3.4-13.5,0.2-17.8,7.5
		c-1.8-9.5-7.2-14.9-15.6-16.8c-7.2-1.6-13,1-16.2,8.6c-3.7-7.6-9.6-11.2-17.3-11.5c-8.7-0.3-13.1,4.9-15.3,13.1
		c-7-7.2-14.9-9.3-23.8-6c-7.5,2.8-8.9,9.3-7.8,16.7c-5.8-1.3-10.9-1.2-14.7,3.4c-5.5,6.9-4.4,13.9,0.5,20.7
		c-16.8,5.6-20.2,20-7.9,31.9c-4.7,3.5-7.2,8.2-7,14.1c0.3,6,3.8,10.2,8.5,13.9c-6.4,4.3-8.5,10-7.3,17c1.3,7.2,6.9,10.4,13,13.3
		c-4.1,5.7-3,11,0.8,16.1c3.7,4.9,9,6.8,14.9,7.5c-2.7,15.4,11.4,25.9,28.3,21c-1.1,9,3.9,14.5,11.3,17.7c7.7,3.4,15,1.4,21.5-3.8
		c6.1,13.3,24.7,10.9,32.3-2.3c7,7.1,15.5,7.7,24.1,4.5c5.2-1.9,7.9-6.5,6.9-13.2c7.8,4.6,14.7,3.9,21.5-0.8
		c7.1-4.9,9-11.8,7.9-19.8c16.8,0.2,22.3-9.6,14.8-25.6c7.5-2.2,11.1-5.8,12.6-13C658.7,397,655.6,390.2,647.8,385.6z M648.3,412.8
		c-1.4,1-3.6,1-5.5,1.1c-1.6,0.1-3.2-0.4-6.1-0.8c1.5,3.1,2.6,5.3,3.7,7.4c0.9,1.7,2.2,3.3,2.9,5.1c3.4,7.9-0.9,14.7-9.6,14.6
		c-3.8,0-7.6-1.1-12.3-1.9c0.7,1.7,1.1,3.1,1.8,4.3c3.9,6.8,3.7,10.5-0.8,15.7c-5,5.6-12.2,7.6-18.2,4.9c-1.4-0.6-2.7-1.5-4.1-2.2
		c-2.7-1.3-4.6-0.2-4.1,2.8c0.7,4.2,1.2,8.4-3.3,10.7c-4.9,2.5-9.9,2.3-14.3-1c-3.8-2.8-7.3-6-11.6-9.6c0.4,9.1-3.3,14.8-12.6,16.1
		c-9.9,1.4-13.3-5-15.5-14.1c-4.9,5.4-7.5,12.1-14.8,11.4c-3.1-0.3-6.6-1-9.1-2.8c-6.9-4.9-8.4-11.8-5.7-20.2
		c-8.2,9.8-16.6,5.5-24.6,0.6c-3.4-2.1-5.4-5.4-3.4-9.8c1.5-3.4,3-6.9,4.4-10.3c-4,0.5-7.7,1.4-11.5,1.4c-4.8,0-8.6-2.5-11-6.7
		c-2.6-4.6-2-7.6,1.7-11.3c1.5-1.5,2.7-3.1,4.1-4.7c-0.3-0.4-0.5-0.7-0.8-1.1c-1.5,0.2-3,0.3-4.4,0.6c-8,1.6-14.6-5.2-11.6-12.9
		c1.9-4.9,5.6-9.1,8.8-14.2c-0.4-0.2-1.6-1.1-2.8-1.7c-5.1-2.4-8-6.4-8.5-12.1c-0.4-5.6,3.2-8.4,7.1-11c1.5-1,3-1.9,4.2-2.7
		c-3.6-2.8-7.6-4.9-10.1-8.3c-1.4-1.9-0.7-5.8,0-8.6c2.4-9.1,9.6-10.2,18.3-9.1c-2-2.8-3.8-4.6-4.9-6.8c-1.3-2.8-2.7-6-2.8-9
		c-0.4-8,4-11.2,11.8-9.4c2.4,0.6,4.9,0.8,7.4,1.2c-0.4-2.4-0.9-4.8-1.3-7.3c-0.7-3.6-1-7.2,2.3-9.7c3.8-2.8,8.2-3.5,12.3-1.5
		c5.1,2.5,9.9,5.7,15.3,8.9c0.5-2.1,1.1-4.5,1.6-6.8c2.3-9.9,11.1-12.8,18.7-5.9c3.8,3.4,7.1,7.5,10.8,11.5c0.7-1.2,1.4-2.3,1.8-3.4
		c1.4-4.4,3.3-8.1,8.7-8.4c6.3-0.4,11.4,1.8,14.5,7.4c2,3.6,3.2,7.7,5.2,12.6c1.3-1.7,2.5-2.9,3.2-4.3c4.4-8.2,10.5-9.3,17.4-3.2
		c4.8,4.2,7.1,9.3,5.7,15.8c-0.2,0.7-0.4,1.4-0.3,2.1c0.2,1.1,0.6,2.2,0.9,3.4c1-0.4,2.1-0.6,2.9-1.2c6.7-5.4,15-4.5,20.1,2.3
		c2.4,3.2,2.9,6.6,1.7,10.3c-0.6,2-1.2,3.9-2.1,6.7c2-0.5,3.3-0.8,4.6-1.1c7.5-1.8,15.3,3.4,15.8,11c0.1,2.5-1.8,5-2.8,7.5
		c-0.7,1.7-1.3,3.4-2,5.2c1.5,0.5,3,1.2,4.5,1.3c5.1,0.4,7.9,2.9,9.3,8.7c1.3,5.3-0.6,10.1-4.9,12.8c-1.5,0.9-2.9,1.9-5.3,3.5
		c2.8,1.5,4.7,2.7,6.7,3.5c4.3,1.6,6.6,4.6,7,9.1C653.5,404.7,652.7,409.5,648.3,412.8z"/>
	<path class="st0" d="M382,459.7c6.5-4.4,8.9-10.8,7.6-18.5c14-1.8,22.3-13,16-24c6.1-2.6,11.6-6.1,12.8-13.3
		c1.2-7.1-1.2-12.9-7.4-16.9c10.9-8.9,11.3-17.6,1.7-28.1c12.9-8.6,7.9-27.9-8.1-31.9c4.2-5.5,5.6-11.5,2.5-17.8
		c-3.4-6.9-9.6-7.8-16.7-6.2c1-6.8,0.2-12.8-6.2-15.9c-9.4-4.5-17.9-2.1-25.3,5c-3.5-9.5-7.7-13.1-15.3-12.8
		c-7.8,0.3-13.6,4.1-17.4,11.4c-2.5-6.2-6.7-9-12.7-8.8c-10.6,0.4-16.3,6.8-19.2,16.7c-3.2-5.9-7.6-9.4-13.9-8.1
		c-11.4,2.2-14.8,11.2-16.4,21.3c-6.8-2.3-13-2-18.4,2.6c-5.4,4.5-7.2,10.4-6.2,17.2c-15,0.9-22,11.5-16.9,25.3
		c-5.8,2.6-10,6.8-11.4,13.1c-1.4,6.4,0.8,11.8,6.5,15.7c-7.7,4-10.6,10.2-9.7,18c0.9,7.6,4.6,13.6,13.2,15.2
		c-3.7,5.9-5.8,11.9-2.1,18.3c3.7,6.3,9.7,7.9,16.8,7.1c-1.7,8.6,0.8,15.3,7.9,20.1c6.8,4.6,13.9,5.2,21.2,0.8
		c0,7.4,3.8,13.1,9.6,13.9c7.9,1.2,15.8,1.3,21.7-5.7c7.2,12.3,25,16.6,32.5,2.5c6.7,5.3,14.1,7,22,3.4c7.2-3.4,11.6-8.8,10.5-17.7
		C368.7,464.1,375.7,464,382,459.7z M356.7,458c2.4,10.5-4.7,19.6-15.6,19.2c-3.1-0.1-6.3-2.5-8.9-4.5c-1.9-1.4-3-3.8-4.9-6.2
		c-3.7,4.7-2.8,12.1-9.8,12.9c-3.4,0.4-7.1,0.5-10.3-0.4c-7.1-2-9.1-7.7-9.3-15c-1.1,1.1-2.2,2.1-3.3,3.2c-4.5,4.2-8.8,8.9-15.7,8.9
		c-7.6-0.1-10.8-4-9.8-11.4c0.2-1.2-0.2-3-1-3.6c-0.7-0.5-2.6-0.1-3.6,0.5c-8.7,6-18.7,1.4-22.7-4.5c-3.2-4.7-3.4-8.3-0.5-13.2
		c0.9-1.5,1.7-3,3.2-5.7c-2.5,0.4-3.8,0.7-5,0.9c-2.9,0.5-5.8,1.3-8.7,1.3c-7.8-0.2-12.1-6.9-9.1-14.2c1.1-2.6,2.9-4.8,4.2-7.2
		c0.8-1.5,1.4-3.2,2.3-5.2c-1.5-0.1-2.5-0.3-3.5-0.2c-8.7,0.9-14-4.8-12.6-13.6c0.8-4.9,3.1-8.2,8-9.8c1.6-0.5,2.9-1.9,4.3-3
		c-1.2-1.2-2.3-2.6-3.7-3.5c-4.2-2.6-6.5-7.6-5.3-12.3c1.3-4.9,3.7-9.7,10.5-9.5c1.2,0,3.1-0.6,3.4-1.4c0.4-1-0.1-2.8-0.9-3.8
		c-5-7.2-5.3-9.5-1.3-14.9c4.1-5.6,7.6-6.5,15.6-4.1c0.4,0.1,0.8,0.1,2,0.2c-0.6-2.2-1.1-4.1-1.7-6c-2-6-0.3-10.7,5.4-14.5
		c5.6-3.7,11.1-3.4,15.8,0.7c0.9,0.8,2.3,1.2,3.5,1.7c0.2-1.3,0.8-2.6,0.5-3.8c-1.7-7.7,0.8-13.8,7.1-18.4
		c6.1-4.4,11.7-3.3,15.5,3.2c1,1.6,2,3.2,3,4.8c0.4,0,0.8,0,1.2,0c0.6-1.9,1.2-3.7,1.8-5.6c2.6-9,8-13.7,15.8-13.8
		c5.3,0,7.7,1.6,9.6,6.5c0.7,1.8,1.5,3.5,2.3,5.4c3.8-4,7-7.9,10.7-11.3c8-7.4,16.7-4.5,19,6.2c0.5,2.2,1.1,4.3,1.7,6.4
		c4.7-2.9,8.9-6.3,13.8-8.3c3.2-1.3,7.4-1.4,10.9-0.6c4.6,1,6.3,4.7,5.5,9.4c-0.3,1.8-1.1,3.5-1.4,5.3c-0.2,1.3,0,2.6,0,3.9
		c1.2-0.1,2.3-0.1,3.5-0.4c2.6-0.5,5.2-1.2,7.8-1.5c3.9-0.5,6,1.7,7.2,5.1c1.7,4.8,0.6,9.2-2.1,13.2c-1.4,2.2-3.1,4.2-5.2,7
		c2.5,0,4.2,0.1,5.9,0c9.9-1,15,9.6,12.7,17.8c-0.6,2.1-3.4,3.7-5.5,5.1c-1.5,1-3.4,1.5-5.8,2.4c5.5,4.6,13.1,6.4,12.5,14.8
		c-0.5,7.6-5.8,11.3-12.1,13.5c3.2,4.1,6,7.3,8.4,10.8c2.2,3.4,2.3,7.1,0.6,10.9c-2,4.5-5.2,6.4-10.1,5.6c-1.9-0.3-3.8-0.6-5.7-0.9
		c-0.2,0.3-0.5,0.7-0.7,1c1.3,1.5,2.4,3.1,3.8,4.5c4.9,4.8,5,9.6,0,14.5c-5.1,4.9-11.1,4.7-17.3,2.9c-0.9-0.3-1.8-0.6-3.4-1.1
		c1.6,3.4,3,6.1,4.1,8.9c2.5,6.3,1.8,10-4.3,13c-4.4,2.2-9.6,3.4-14.4,3.6c-2.7,0.1-5.5-3-8.5-4.8
		C356.3,455.9,356.4,456.9,356.7,458z"/>
	<path class="st0" d="M428.4,246c2.1,3.3,5,6.1,7.5,9.1c2.1,2.4,3.4,2.5,5.1-0.8c7-13.8,15.6-26.4,28.7-35.2
		c8.7-5.8,8.8-7.8,0.8-15.1c-2.9-2.7-6.2-4.9-9-7.6c-6.7-6.2-13.5-12.3-19.6-19.1c-4.3-4.7-7.5-10.4-11.6-16.2
		c-1,2.2-1.8,3.9-2.6,5.6c-4.2,9.7-7.9,19.7-15.5,27.3c-5.3,5.2-11.3,9.6-17.2,14.1c-2.7,2.1-3,3.8-0.4,6c3,2.5,5.8,5.3,9.1,7.4
		C413.7,228,422,235.9,428.4,246z M401.1,211.7c13.7-9.3,24.8-20.6,29.6-36.7c5.7,6.7,11.2,13.4,17.1,19.7c5.8,6.2,12.1,12,18.1,18
		c-12.2,9.4-21.4,21.8-28.3,36.4C428.3,233.8,416.2,221.6,401.1,211.7z"/>
	<path class="st0" d="M393.5,147.4c4,3.2,7.9,6.5,12.6,10.4c-4.8-25.3-16.3-44.6-39.9-54.6c-5.1-2.2-11.1-2.6-16.7-2.8
		c-3.9-0.1-7.1,2.7-8.4,6.7c-1.3,3.8,0.3,7.1,3,9.5c2.5,2.4,5.3,4.7,8.4,6.1C367,129.4,380.9,137.2,393.5,147.4z"/>
	<path class="st0" d="M461.5,157.4c0.9-0.5,1.4-0.7,1.8-1.1c15.6-14.3,33.2-25.4,52.5-34c2.4-1.1,4.6-2.7,6.5-4.5
		c3-2.9,5.8-6.1,4.1-10.7c-1.7-4.8-5.7-7.2-10.5-7c-4.5,0.2-9.3,0.9-13.5,2.6C478.2,112.6,466.4,132.1,461.5,157.4z"/>
	<path class="st0" d="M394.4,112.7c4.9,4.2,9.7,8.5,13.9,13.4c4.1,4.9,7.4,10.5,11.6,16.7c0.2-2.5,0.4-3.8,0.3-5.2
		c-0.4-18-8.4-32.6-20.4-45.3c-2.4-2.5-6.8-4-10.4-4.4c-6.5-0.8-8.9,3-6.8,9.3C384.9,103.6,389.3,108.3,394.4,112.7z"/>
	<path class="st0" d="M476.7,109.2c1.1-0.8,2.1-2,2.8-3.1c1.9-3.2,4.2-6.4,5.4-9.9c1.9-5.3-0.6-9-6.2-8.4c-3.7,0.4-8.4,1.5-10.5,4
		c-5.7,6.8-11,14.2-15.1,22c-4.6,8.5-7,17.9-5,28.1C455.4,128.9,464.8,118.1,476.7,109.2z"/>
	<path class="st0" d="M517,156c-1.9-0.8-4-1.3-6.1-1.5c-3.4-0.3-6.8-0.4-10.1-0.1c-13.4,1.1-23.3,8.4-32.9,18.6
		c6.3-1,11.2-2.1,16.2-2.3c5-0.2,10.1,0.5,15.1,0.8c4.9,0.3,9.8,0.7,14.7,0.6c4.3,0,7.8-3.1,8.5-6.8C523.2,161,521.5,157.8,517,156z
		"/>
	<path class="st0" d="M378.5,157.3c-8.4-3.8-17.2-3.9-26-2.1c-5.5,1.1-8,4.7-7.6,9.5c0.4,4.3,4.5,7.4,9.7,7.5
		c3.4,0,6.8,0.3,10.1-0.2c11.2-1.8,22.3-2.5,33.7,0.9C393.3,165.6,386.3,160.9,378.5,157.3z"/>
	<path class="st0" d="M418.7,829.6c9.8,4,18.7,4.1,28.4-0.1c-10.1-6.8-11.5-17.3-14.2-27.5C430.3,812.2,428.8,822.9,418.7,829.6z"/>
	<path class="st0" d="M593.5,323.2c-21-11.5-44-15.4-69.4-16.6c-4.9,0.6-11.5,0.9-17.9,2.3c-7.7,1.7-15.5,4.3-20.3,11
		c-6.6,9.3-12.6,19-15,30.4c-3.9,18.5-1.2,36.3,5.1,53.8c16.3,45.4,62.5,68.7,108.4,53.9c20.8-6.7,37.3-19.2,45.2-40.4
		C642.7,382.6,627.1,341.7,593.5,323.2z M576.3,335.7c0,2.9,0,5.2,0,8.2c1.5-0.8,2.6-1.2,3.6-1.8c2.7-1.7,5.5-3.5,8.5-1.2
		c3,2.4,3.6,5.9,2.7,9.6c-1.3,5.3-1.4,5.3,4,5.7c3.2,0.2,4.9,2.1,3.9,5c-1.3,3.6-2.8,7.5-5.3,10.4c-5.3,6.2-12.3,10.2-19.9,12.9
		c-1,0.3-2.3-0.6-3.5-1.5c6.2-2.7,10.1-6.9,12.6-12c-4.3,2.8-8.7,5.9-13.3,8.7c-0.7,0.4-1.9,0.1-2.9,0.1c0.4-0.9,0.5-2,1.1-2.7
		c2.9-3.6,6-7,8.7-10.8c1.2-1.8,1.5-4.3,1.5-6.8c-5.4,5.4-7.8,13.6-16,17.3c2.1-5.8,4-10.9,5.9-15.9c-0.4-0.2-0.8-0.3-1.2-0.5
		c-2.5,4.2-5,8.4-7.9,13.3C556.7,363.4,567.3,341.1,576.3,335.7z M552.7,405.9c-8.8,0.1-18.9-11.5-17.5-20.1
		c0.9-5.8,10.9-11.2,17.1-9c6.2,2.2,10.6,6.5,11.7,13.2C565.1,396.7,560.5,406.2,552.7,405.9z M514.1,333.1c1.2-3.1,2.9-3.5,5.4-1.5
		c0.2,0.2,0.5,0.3,0.7,0.5c1.8,1.3,3.6,2.5,5.4,3.7c0.7-1.9,1.5-3.8,2.1-5.8c1.4-4,4.3-5.5,7.8-3c3.2,2.2,5.6,5.5,8.6,8.6
		c0.5-1.5,1.3-3.4,2.2-5.9c6.4,3.6,8.8,9.6,10.3,15.7c2.1,8.6,1.6,17.2-3,25.2c-0.5-4.9-1-9.9-1.5-14.8c-0.5,0-1,0-1.5,0.1
		c-0.3,5-0.7,10.1-1,15.1c-0.6,0.1-1.2,0.2-1.9,0.3c-3.2-6.7-6.4-13.3-9.6-20c-0.3,0.1-0.7,0.1-1,0.2c1.6,6.3,3.1,12.6,4.8,19.6
		c-4.2-3.8-8.1-7.3-12.1-10.9c-0.3,0.3-0.7,0.5-1,0.8c3.3,4.3,6.7,8.6,10,13c-0.1,0.2-0.2,0.4-0.4,0.6c-1.5-1-3.2-1.9-4.6-3.1
		c-5.3-4.4-11-8.4-15.7-13.4C511.6,351,510.6,342.3,514.1,333.1z M494.5,378.6c0.3-0.3,0.5-0.7,1.4-2c-0.8-0.5-2-0.8-2.7-1.6
		c-1.3-1.4-3-3-3.3-4.7c-0.3-2.1,0.1-5.1,1.4-6.4c1-1.1,4-0.4,6.1-0.2c1.4,0.1,2.7,0.8,4,1.3c0.3-0.5,0.5-1,0.8-1.4
		c-1.2-1.1-2.4-2.1-3.4-3.3c-0.7-0.9-1.6-2.4-1.3-3.2c0.3-0.9,2-1.8,3-1.7c3.2,0.3,7,0,9.3,1.7c8,5.9,15.4,12.5,23,18.9
		c0.1,0.1-0.1,0.5-0.3,1.5c-5.7-3.2-11.2-6.2-16.7-9.2c2.9,4.9,4.9,10.6,11.9,11.3c-0.2,0.4-0.3,0.8-0.5,1.2
		c-3.8-0.3-7.7-0.1-11.3-0.9c-3.5-0.9-6.8-2.8-11.1-4.7c6.3,7.9,14.3,9.7,22.9,10.1c0,0.4-0.1,0.8-0.1,1.2c-3.1,0.4-6.3,0.9-9.4,1.1
		c-3.3,0.2-6.5,0-9.8,0c-0.1,0.5-0.2,1-0.2,1.5c5,1.1,10,2.1,15.1,3.2c0,0.2,0.1,0.3,0.1,0.5c-3.9,0.1-8.1,1-11.8,0.2
		c-5.7-1.3-11.3-3.3-16.5-5.8C489.8,384.5,490,382.3,494.5,378.6z M529.4,437.4c-2,0.9-4.6,1.6-6.6,1c-1.1-0.3-1.4-3.4-2.1-5.3
		c-0.2-0.6-0.2-1.3-0.3-2.6c-1.7,0.4-3.1,0.6-4.5,1c-6.9,1.9-10.8-1.7-9.3-8.6c0.5-2.1,1.2-4-2.1-4c-5.9-0.1-7.9-1.4-8.7-5.5
		c-1-4.7,1.1-9.4,5.6-11c8.8-3.2,17.8-6,26.7-8.9c1.5,2.2,2.4,3.5,3.8,5.5c-5.7,2.9-11.4,5.7-17.1,8.6c0.2,0.4,0.4,0.9,0.5,1.3
		c6,1.4,10.9-2.1,16.1-4.6c0.3,0.3,0.6,0.7,0.9,1c-4.7,4.1-9.4,8.2-14.1,12.3c0.4,0.4,0.8,0.9,1.2,1.3c6.9-2,11.2-7.8,17.1-12
		c-2.4,4.2-4.8,8.4-7.3,12.6c0.4,0.3,0.7,0.6,1.1,0.9c3.5-4.3,7-8.7,10.5-13c0.4,0.1,0.7,0.2,1.1,0.4c-0.4,2.5-0.4,5.1-1.2,7.4
		c-2.2,6.1-4.6,12.2-7.3,18.1C532.7,435,531,436.7,529.4,437.4z M574.8,440.1c-2.4,0-3.3,0.6-3.9,3.1c-0.5,2.2-2.1,5.2-3.9,5.7
		c-2.3,0.6-5.9,0-7.6-1.6c-2.9-2.7-4.9-4.2-8.5-1.4c-0.9,0.7-2.8,0.6-4,0.3c-5-1.4-9-11.3-7.2-16.2c2.5-6.6,4.5-13.5,6.8-20.8
		c2.6-0.5,4.5,0.7,5,4.5c0.5,4,1.4,8,2.9,12c0-5,0-10,0-15c0.3-0.1,0.7-0.2,1-0.3c3.1,7.6,6.2,15.3,9.5,23.4
		c1.3-9.2-3-16.5-5.6-24.5c5.3,3.8,7.6,10.2,12.1,14.6c0.4-0.2,0.7-0.5,1.1-0.7c-3.2-5.1-6.3-10.3-10-16.2c1.5,0.3,3,0.1,3.5,0.7
		c5.5,6.4,11.3,12.5,16,19.4C586.8,434.1,583,440.1,574.8,440.1z M618.7,405.6c-0.6,3.6-3.3,5.7-6.6,6.2c-3.7,0.5-4.8,1.7-3.5,5.5
		c1.6,4.8-0.4,7.4-5.7,7.7c-8,0.5-15.4-1.5-21.6-6.7c-4.7-4-8.9-8.6-13.2-13c-0.8-0.8-0.7-2.4-1-3.6c1.2-0.2,2.7-0.9,3.7-0.5
		c5.2,2.2,10.2,4.7,15.3,7c0.8,0.4,1.7,0.6,2.6,0.9c0.2-0.4,0.4-0.8,0.6-1.2c-5.9-3.5-11.9-7-17.2-10.2c6.8,0,14.6,0,22.4,0
		c-7.8-5.9-17.2-4.3-26.1-4.7c-0.1-0.4-0.1-0.8-0.2-1.2c7.3-1.1,14.5-2.2,21.8-3.3c0-0.4,0-0.9,0-1.3c-4-0.3-8-0.7-12.6-1.1
		c3.7-2.9,6.8-5.7,11.7-4.8c5.6,1,11.4,1.4,17,2.7c6.7,1.6,8.2,5.1,6.5,11.6c-0.3,1.1,0.5,3.2,1.4,3.8
		C616.5,401,619.3,402.1,618.7,405.6z"/>
	<path class="st0" d="M392.9,394.5c4.9-16.8,5.8-33.9-0.1-50.6c-2.2-6.4-6.4-12.1-9.4-18.3c-2.8-5.8-7.1-10-12.9-12.8
		c-9.7-4.6-20-6.3-30.7-5.9c-18.3,0.2-36,3.4-53.1,9.7c-30.3,11.1-49.3,32.2-54.3,64.4c-3.3,21,1.1,40.3,15.8,56.4
		c23.9,26.1,68.5,32.7,100.6,15.1C372.2,439.8,385.7,419.5,392.9,394.5z M365.1,355.4c1-0.2,2.7,0.6,3.2,1.4
		c0.4,0.7-0.6,2.2-1.2,3.2c-0.5,0.8-1.6,1.2-2.1,2c-0.4,0.7-0.5,1.6-0.7,2.4c0.7,0,1.6,0.3,2.2,0c3.2-1.5,6.5-3.7,9.1,0.6
		c1.9,3,0.4,6.9-3.5,10.2c-0.6,0.5-1.2,1.1-1.7,1.6c0.1,0.5,0.1,0.9,0.3,1c5.2,4.6,5.1,6.5-1.2,9.9c-8.5,4.5-17.4,6.8-27.6,4.3
		c4.4-0.8,8.4-1.6,12.4-2.4c1-0.2,2-0.9,4.2-1.9c-7.7-0.4-14.1-0.8-20.6-1.1c-0.1-0.5-0.1-0.9-0.2-1.4c8.5-0.9,16.8-2.2,22.2-10
		c-6.6,4.3-13.6,6.3-21.7,4.6c6.2-1.3,8.9-6.3,11.5-11.7c-5.4,3-10.8,6-16.6,9.3c0-1.1-0.2-1.7,0-1.8c7-6,13.8-12.3,21.3-17.7
		C357.1,356,361.5,356,365.1,355.4z M319.5,330c0.7,2,1.4,4,2.5,6.9c0.9-1.5,1.3-2.4,1.9-3.2c1.4-1.9,2.5-4.1,4.3-5.5
		c5.3-4.2,9.2-2.4,10,4.4c0.1,1.1,0.8,2.2,1.2,3.3c1.1-0.4,2.4-0.7,3.3-1.4c7.3-5.6,8.3-5.3,10.3,3.8c1.3,5.8-0.2,11.2-2.8,16.2
		c-2.9,5.6-17,17.4-24.6,20.3c2.7-2.9,4.7-4.8,6.4-7c1.7-2.1,3-4.5,3.7-7.4c-4,3.6-7.9,7.2-12.2,11c1.8-7.1,3.4-13.7,5.1-20.2
		c-0.3-0.1-0.6-0.2-0.9-0.2c-3.2,6.9-6.5,13.8-9.7,20.6c-0.7-0.1-1.3-0.2-2-0.3c-0.3-5.1-0.7-10.1-1-15.2c-0.5,0-1.1,0-1.6-0.1
		c-0.5,4.8-1,9.6-1.5,14.6C304.8,362.6,307.2,335.7,319.5,330z M329.1,393.2c-2.9,7-9.9,12.7-16,12.7c-5.2,0-8.6-3.1-10.3-9.5
		c-2.3-8.9,1.7-16.5,10.2-19.5c6.2-2.2,11.2,0.9,15.4,4.5C331.9,384.4,330.8,389.1,329.1,393.2z M272.6,356.3c3-0.1,3.8-1.2,2.7-4
		c-0.5-1.4-1.3-3.1-0.9-4.4c0.7-2.6,1.6-5.9,3.5-7.1c1.6-1,4.9,0.4,7.3,1c1.2,0.3,2.3,1.2,4.1,2.3c0-3.3,0-5.6,0-8.8
		c13.1,9.5,15,23.6,18.8,36.7c-0.5,0.3-0.9,0.5-1.4,0.8c-2.5-4.2-5.1-8.5-7.6-12.7c-0.4,0.1-0.8,0.3-1.2,0.4c1.9,5,3.7,10,5.6,15
		c-2,0.5-5-1.4-8.5-6.4c-2.2-3.2-4-6.7-6.1-10.3c-2.2,4.6-1.9,5.3,11.6,21c-2.2-0.1-3.5,0.1-4.4-0.3c-2.4-1.2-4.7-2.5-6.9-4
		c-2.1-1.6-4-3.5-5.9-5.2c1,4.7,4.9,8.6,13,12.4c-1.5,0.9-2.8,2.1-3.4,1.9c-10.8-3.9-20.5-9.2-25.3-20.6
		C265.1,358.4,266.4,356.5,272.6,356.3z M263.1,425.1c-5.7-0.4-7.6-2.8-6-8.2c0.8-2.9,0.4-4.3-2.9-4.9c-2.2-0.4-4.5-1.8-6-3.4
		c-2.8-3-2-6.6,1.8-8.2c3-1.3,4.1-2.5,2.8-5.9c-1.7-4.5-0.4-8.2,4.3-9.4c7.7-1.9,15.7-3,23.6-3.5c2.4-0.2,5,2.6,7.5,4
		c-0.1,0.2-0.3,0.5-0.4,0.7c-4.1,0.3-8.2,0.6-12.2,1c0,0.4,0,0.9,0,1.3c7.4,1.1,14.8,2.3,22.3,3.4c0,0.4,0,0.7,0,1.1
		c-9,0.4-18.4-1.1-26.3,4.7c7.6,0,15.3,0,22.1,0c-5.1,3.1-11,6.6-16.9,10.1c0.2,0.5,0.5,0.9,0.7,1.4c3.8-1.8,7.5-3.7,11.3-5.4
		c2.4-1.1,4.9-2.1,7.4-3c0.7-0.2,2,0.2,2.4,0.7c0.4,0.5,0.5,2,0.1,2.5c-8.6,9.6-16.8,20-31.2,20.9
		C266,425.1,264.5,425.1,263.1,425.1z M321.3,444.7c-2.5,2.6-5.5,2.5-8.4,0.4c-2-1.4-3.5-1.1-5.1,0.8c-2.1,2.7-5,4.3-8.5,3.5
		s-4.4-3.8-5.1-7c-0.2-1-2.2-2.2-3.4-2.3c-7.9-0.1-12-6-7.7-12.5c4.8-7.2,10.9-13.5,16.5-20.1c0.4-0.5,1.9-0.1,3.1-0.1
		c-3.5,5.6-6.7,10.7-9.9,15.9c0.4,0.2,0.8,0.5,1.1,0.7c4.5-4.5,6.7-11.1,12.4-14.6c-3.3,7.7-6.9,15.2-5.8,24.4
		c3.3-8.3,6.4-16,9.6-23.7c0.3,0.1,0.6,0.1,1,0.2c0,5.2,0,10.4,0,15.6c0.2,0,0.5,0,0.7,0c0.8-4.1,1.7-8.2,2.3-12.4
		c0.5-3.6,2.2-4.8,4.5-4.4c2.9,8,6.1,15.4,8.1,23C328,437,324.6,441.2,321.3,444.7z M358.8,421.8c1,9.7-1.2,11.7-10.7,9.4
		c-0.8-0.2-1.6-0.2-2.7-0.3c-0.1,1.1-0.4,2-0.4,2.9c-0.2,5.2-3.3,7.1-7.8,4.3c-5.3-3.2-8.4-8.3-10.1-14c-1.6-5.3-2.6-10.7-3.8-16.1
		c0.5-0.2,1-0.4,1.4-0.5c3.5,4.4,7,8.8,10.4,13.2c0.4-0.3,0.9-0.6,1.3-1c-2.5-4.3-5.1-8.7-7.6-13c5.8,4.5,10.3,10.2,17.2,12.3
		c-4.4-4.3-9-8.6-13.5-13c0.5-0.6,1-1.1,1.4-1.7c2.6,1.2,5.2,2.8,8,3.6c2.8,0.8,5.7,0.9,8.6,1.3c0.2-0.6,0.3-1.2,0.5-1.8
		c-5.7-2.8-11.3-5.5-17.2-8.4c1.2-1.9,2.2-3.4,3.7-5.6c9,3,18.4,5.9,27.5,9.2c3.8,1.4,5.8,6.7,4.8,10.7c-1,4.2-2.9,5.3-8.8,5.7
		C360.3,419.2,358.7,420.9,358.8,421.8z"/>
</g>
</svg>
